<svg xmlns="http://www.w3.org/2000/svg" width="1040" height="700">
<rect width="100%" height="100%" fill="white"/>
<text x="520" y="35" text-anchor="middle" font-family="Arial" font-size="24">LightGBM probability of real data</text>
<line x1="90" y1="570" x2="990" y2="570" stroke="#333"/>
<line x1="90" y1="70" x2="90" y2="570" stroke="#333"/>
<line x1="90" y1="570.0" x2="990" y2="570.0" stroke="#ddd"/>
<text x="80" y="575.0" text-anchor="end" font-family="Arial" font-size="13">0.0</text>
<line x1="90" y1="470.0" x2="990" y2="470.0" stroke="#ddd"/>
<text x="80" y="475.0" text-anchor="end" font-family="Arial" font-size="13">0.2</text>
<line x1="90" y1="370.0" x2="990" y2="370.0" stroke="#ddd"/>
<text x="80" y="375.0" text-anchor="end" font-family="Arial" font-size="13">0.4</text>
<line x1="90" y1="270.0" x2="990" y2="270.0" stroke="#ddd"/>
<text x="80" y="275.0" text-anchor="end" font-family="Arial" font-size="13">0.6</text>
<line x1="90" y1="170.0" x2="990" y2="170.0" stroke="#ddd"/>
<text x="80" y="175.0" text-anchor="end" font-family="Arial" font-size="13">0.8</text>
<line x1="90" y1="70.0" x2="990" y2="70.0" stroke="#ddd"/>
<text x="80" y="75.0" text-anchor="end" font-family="Arial" font-size="13">1.0</text>
<line x1="90" y1="320.0" x2="990" y2="320.0" stroke="#b91c1c" stroke-dasharray="6,5"/>
<rect x="95.0" y="225.3" width="54.3" height="344.7" fill="#2563eb"/>
<text x="122.1" y="218.3" text-anchor="middle" font-family="Arial" font-size="12">0.689</text>
<text x="122.1" y="595" text-anchor="middle" font-family="Arial" font-size="13">mask11</text>
<rect x="159.3" y="296.7" width="54.3" height="273.3" fill="#2563eb"/>
<text x="186.4" y="289.7" text-anchor="middle" font-family="Arial" font-size="12">0.547</text>
<text x="186.4" y="595" text-anchor="middle" font-family="Arial" font-size="13">mask10</text>
<rect x="223.6" y="297.0" width="54.3" height="273.0" fill="#2563eb"/>
<text x="250.7" y="290.0" text-anchor="middle" font-family="Arial" font-size="12">0.546</text>
<text x="250.7" y="595" text-anchor="middle" font-family="Arial" font-size="13">mask12</text>
<rect x="287.9" y="310.1" width="54.3" height="259.9" fill="#2563eb"/>
<text x="315.0" y="303.1" text-anchor="middle" font-family="Arial" font-size="12">0.520</text>
<text x="315.0" y="595" text-anchor="middle" font-family="Arial" font-size="13">mask4</text>
<rect x="352.1" y="481.2" width="54.3" height="88.8" fill="#f59e0b"/>
<text x="379.3" y="474.2" text-anchor="middle" font-family="Arial" font-size="12">0.178</text>
<text x="379.3" y="595" text-anchor="middle" font-family="Arial" font-size="13">mask13</text>
<rect x="416.4" y="483.7" width="54.3" height="86.3" fill="#f59e0b"/>
<text x="443.6" y="476.7" text-anchor="middle" font-family="Arial" font-size="12">0.173</text>
<text x="443.6" y="595" text-anchor="middle" font-family="Arial" font-size="13">mask14</text>
<rect x="480.7" y="486.0" width="54.3" height="84.0" fill="#f59e0b"/>
<text x="507.9" y="479.0" text-anchor="middle" font-family="Arial" font-size="12">0.168</text>
<text x="507.9" y="595" text-anchor="middle" font-family="Arial" font-size="13">mask6</text>
<rect x="545.0" y="486.9" width="54.3" height="83.1" fill="#f59e0b"/>
<text x="572.1" y="479.9" text-anchor="middle" font-family="Arial" font-size="12">0.166</text>
<text x="572.1" y="595" text-anchor="middle" font-family="Arial" font-size="13">mask3</text>
<rect x="609.3" y="487.2" width="54.3" height="82.8" fill="#f59e0b"/>
<text x="636.4" y="480.2" text-anchor="middle" font-family="Arial" font-size="12">0.166</text>
<text x="636.4" y="595" text-anchor="middle" font-family="Arial" font-size="13">mask7</text>
<rect x="673.6" y="487.4" width="54.3" height="82.6" fill="#f59e0b"/>
<text x="700.7" y="480.4" text-anchor="middle" font-family="Arial" font-size="12">0.165</text>
<text x="700.7" y="595" text-anchor="middle" font-family="Arial" font-size="13">mask5</text>
<rect x="737.9" y="487.5" width="54.3" height="82.5" fill="#f59e0b"/>
<text x="765.0" y="480.5" text-anchor="middle" font-family="Arial" font-size="12">0.165</text>
<text x="765.0" y="595" text-anchor="middle" font-family="Arial" font-size="13">mask1</text>
<rect x="802.1" y="487.5" width="54.3" height="82.5" fill="#f59e0b"/>
<text x="829.3" y="480.5" text-anchor="middle" font-family="Arial" font-size="12">0.165</text>
<text x="829.3" y="595" text-anchor="middle" font-family="Arial" font-size="13">mask8</text>
<rect x="866.4" y="487.5" width="54.3" height="82.5" fill="#f59e0b"/>
<text x="893.6" y="480.5" text-anchor="middle" font-family="Arial" font-size="12">0.165</text>
<text x="893.6" y="595" text-anchor="middle" font-family="Arial" font-size="13">mask9</text>
<rect x="930.7" y="487.8" width="54.3" height="82.2" fill="#f59e0b"/>
<text x="957.9" y="480.8" text-anchor="middle" font-family="Arial" font-size="12">0.164</text>
<text x="957.9" y="595" text-anchor="middle" font-family="Arial" font-size="13">mask2</text>
</svg>