<svg xmlns="http://www.w3.org/2000/svg" width="1200" height="780" viewBox="0 0 1200 780">
<rect width="100%" height="100%" fill="white"/>
<text x="60.0" y="40.0" font-family="Helvetica,Arial,sans-serif" font-size="26" font-weight="bold" fill="#111827" text-anchor="start">LightGBM score distribution</text>
<text x="60.0" y="68.0" font-family="Helvetica,Arial,sans-serif" font-size="15" font-weight="normal" fill="#111827" text-anchor="start">Blue = real, red = generated, dashed line = default threshold 0.5</text>
<text x="90.0" y="123.0" font-family="Helvetica,Arial,sans-serif" font-size="22" font-weight="bold" fill="#111827" text-anchor="start">train: prob_real distribution</text>
<line x1="90.0" y1="565.0" x2="400.0" y2="565.0" stroke="#374151" stroke-width="1.5"/>
<line x1="90.0" y1="145.0" x2="90.0" y2="565.0" stroke="#374151" stroke-width="1.5"/>
<line x1="90.0" y1="565.0" x2="90.0" y2="571.0" stroke="#374151" stroke-width="1"/>
<text x="90.0" y="590.0" font-family="Helvetica,Arial,sans-serif" font-size="14" font-weight="normal" fill="#111827" text-anchor="middle">0.0</text>
<line x1="152.0" y1="565.0" x2="152.0" y2="571.0" stroke="#374151" stroke-width="1"/>
<text x="152.0" y="590.0" font-family="Helvetica,Arial,sans-serif" font-size="14" font-weight="normal" fill="#111827" text-anchor="middle">0.2</text>
<line x1="214.0" y1="565.0" x2="214.0" y2="571.0" stroke="#374151" stroke-width="1"/>
<text x="214.0" y="590.0" font-family="Helvetica,Arial,sans-serif" font-size="14" font-weight="normal" fill="#111827" text-anchor="middle">0.4</text>
<line x1="276.0" y1="565.0" x2="276.0" y2="571.0" stroke="#374151" stroke-width="1"/>
<text x="276.0" y="590.0" font-family="Helvetica,Arial,sans-serif" font-size="14" font-weight="normal" fill="#111827" text-anchor="middle">0.6</text>
<line x1="338.0" y1="565.0" x2="338.0" y2="571.0" stroke="#374151" stroke-width="1"/>
<text x="338.0" y="590.0" font-family="Helvetica,Arial,sans-serif" font-size="14" font-weight="normal" fill="#111827" text-anchor="middle">0.8</text>
<line x1="400.0" y1="565.0" x2="400.0" y2="571.0" stroke="#374151" stroke-width="1"/>
<text x="400.0" y="590.0" font-family="Helvetica,Arial,sans-serif" font-size="14" font-weight="normal" fill="#111827" text-anchor="middle">1.0</text>
<line x1="84.0" y1="565.0" x2="90.0" y2="565.0" stroke="#374151" stroke-width="1"/>
<text x="80.0" y="569.0" font-family="Helvetica,Arial,sans-serif" font-size="13" font-weight="normal" fill="#111827" text-anchor="end">0.00</text>
<line x1="84.0" y1="460.0" x2="90.0" y2="460.0" stroke="#374151" stroke-width="1"/>
<text x="80.0" y="464.0" font-family="Helvetica,Arial,sans-serif" font-size="13" font-weight="normal" fill="#111827" text-anchor="end">0.24</text>
<line x1="84.0" y1="355.0" x2="90.0" y2="355.0" stroke="#374151" stroke-width="1"/>
<text x="80.0" y="359.0" font-family="Helvetica,Arial,sans-serif" font-size="13" font-weight="normal" fill="#111827" text-anchor="end">0.48</text>
<line x1="84.0" y1="250.0" x2="90.0" y2="250.0" stroke="#374151" stroke-width="1"/>
<text x="80.0" y="254.0" font-family="Helvetica,Arial,sans-serif" font-size="13" font-weight="normal" fill="#111827" text-anchor="end">0.72</text>
<line x1="84.0" y1="145.0" x2="90.0" y2="145.0" stroke="#374151" stroke-width="1"/>
<text x="80.0" y="149.0" font-family="Helvetica,Arial,sans-serif" font-size="13" font-weight="normal" fill="#111827" text-anchor="end">0.96</text>
<rect x="90.0" y="565.0" width="7.1" height="0.0" fill="#dc2626" fill-opacity="0.420" stroke="none"/>
<rect x="97.8" y="562.8" width="7.1" height="2.2" fill="#dc2626" fill-opacity="0.420" stroke="none"/>
<rect x="105.5" y="199.8" width="7.1" height="365.2" fill="#dc2626" fill-opacity="0.420" stroke="none"/>
<rect x="113.2" y="527.8" width="7.1" height="37.2" fill="#dc2626" fill-opacity="0.420" stroke="none"/>
<rect x="121.0" y="561.4" width="7.1" height="3.6" fill="#dc2626" fill-opacity="0.420" stroke="none"/>
<rect x="128.8" y="555.5" width="7.1" height="9.5" fill="#dc2626" fill-opacity="0.420" stroke="none"/>
<rect x="136.5" y="555.5" width="7.1" height="9.5" fill="#dc2626" fill-opacity="0.420" stroke="none"/>
<rect x="144.2" y="559.9" width="7.1" height="5.1" fill="#dc2626" fill-opacity="0.420" stroke="none"/>
<rect x="152.0" y="563.5" width="7.1" height="1.5" fill="#dc2626" fill-opacity="0.420" stroke="none"/>
<rect x="159.8" y="565.0" width="7.1" height="0.0" fill="#dc2626" fill-opacity="0.420" stroke="none"/>
<rect x="167.5" y="565.0" width="7.1" height="0.0" fill="#dc2626" fill-opacity="0.420" stroke="none"/>
<rect x="175.2" y="565.0" width="7.1" height="0.0" fill="#dc2626" fill-opacity="0.420" stroke="none"/>
<rect x="183.0" y="565.0" width="7.1" height="0.0" fill="#dc2626" fill-opacity="0.420" stroke="none"/>
<rect x="190.8" y="565.0" width="7.1" height="0.0" fill="#dc2626" fill-opacity="0.420" stroke="none"/>
<rect x="198.5" y="565.0" width="7.1" height="0.0" fill="#dc2626" fill-opacity="0.420" stroke="none"/>
<rect x="206.2" y="564.3" width="7.1" height="0.7" fill="#dc2626" fill-opacity="0.420" stroke="none"/>
<rect x="214.0" y="565.0" width="7.1" height="0.0" fill="#dc2626" fill-opacity="0.420" stroke="none"/>
<rect x="221.8" y="565.0" width="7.1" height="0.0" fill="#dc2626" fill-opacity="0.420" stroke="none"/>
<rect x="229.5" y="565.0" width="7.1" height="0.0" fill="#dc2626" fill-opacity="0.420" stroke="none"/>
<rect x="237.2" y="565.0" width="7.1" height="0.0" fill="#dc2626" fill-opacity="0.420" stroke="none"/>
<rect x="245.0" y="565.0" width="7.1" height="0.0" fill="#dc2626" fill-opacity="0.420" stroke="none"/>
<rect x="252.8" y="565.0" width="7.1" height="0.0" fill="#dc2626" fill-opacity="0.420" stroke="none"/>
<rect x="260.5" y="563.5" width="7.1" height="1.5" fill="#dc2626" fill-opacity="0.420" stroke="none"/>
<rect x="268.2" y="565.0" width="7.1" height="0.0" fill="#dc2626" fill-opacity="0.420" stroke="none"/>
<rect x="276.0" y="564.3" width="7.1" height="0.7" fill="#dc2626" fill-opacity="0.420" stroke="none"/>
<rect x="283.8" y="565.0" width="7.1" height="0.0" fill="#dc2626" fill-opacity="0.420" stroke="none"/>
<rect x="291.5" y="565.0" width="7.1" height="0.0" fill="#dc2626" fill-opacity="0.420" stroke="none"/>
<rect x="299.2" y="565.0" width="7.1" height="0.0" fill="#dc2626" fill-opacity="0.420" stroke="none"/>
<rect x="307.0" y="564.3" width="7.1" height="0.7" fill="#dc2626" fill-opacity="0.420" stroke="none"/>
<rect x="314.8" y="565.0" width="7.1" height="0.0" fill="#dc2626" fill-opacity="0.420" stroke="none"/>
<rect x="322.5" y="565.0" width="7.1" height="0.0" fill="#dc2626" fill-opacity="0.420" stroke="none"/>
<rect x="330.2" y="565.0" width="7.1" height="0.0" fill="#dc2626" fill-opacity="0.420" stroke="none"/>
<rect x="338.0" y="565.0" width="7.1" height="0.0" fill="#dc2626" fill-opacity="0.420" stroke="none"/>
<rect x="345.8" y="565.0" width="7.1" height="0.0" fill="#dc2626" fill-opacity="0.420" stroke="none"/>
<rect x="353.5" y="565.0" width="7.1" height="0.0" fill="#dc2626" fill-opacity="0.420" stroke="none"/>
<rect x="361.2" y="565.0" width="7.1" height="0.0" fill="#dc2626" fill-opacity="0.420" stroke="none"/>
<rect x="369.0" y="565.0" width="7.1" height="0.0" fill="#dc2626" fill-opacity="0.420" stroke="none"/>
<rect x="376.8" y="565.0" width="7.1" height="0.0" fill="#dc2626" fill-opacity="0.420" stroke="none"/>
<rect x="384.5" y="565.0" width="7.1" height="0.0" fill="#dc2626" fill-opacity="0.420" stroke="none"/>
<rect x="392.2" y="565.0" width="7.1" height="0.0" fill="#dc2626" fill-opacity="0.420" stroke="none"/>
<rect x="90.6" y="565.0" width="5.6" height="0.0" fill="#2563eb" fill-opacity="0.420" stroke="none"/>
<rect x="98.4" y="565.0" width="5.6" height="0.0" fill="#2563eb" fill-opacity="0.420" stroke="none"/>
<rect x="106.1" y="565.0" width="5.6" height="0.0" fill="#2563eb" fill-opacity="0.420" stroke="none"/>
<rect x="113.9" y="565.0" width="5.6" height="0.0" fill="#2563eb" fill-opacity="0.420" stroke="none"/>
<rect x="121.6" y="565.0" width="5.6" height="0.0" fill="#2563eb" fill-opacity="0.420" stroke="none"/>
<rect x="129.4" y="565.0" width="5.6" height="0.0" fill="#2563eb" fill-opacity="0.420" stroke="none"/>
<rect x="137.1" y="565.0" width="5.6" height="0.0" fill="#2563eb" fill-opacity="0.420" stroke="none"/>
<rect x="144.9" y="565.0" width="5.6" height="0.0" fill="#2563eb" fill-opacity="0.420" stroke="none"/>
<rect x="152.6" y="565.0" width="5.6" height="0.0" fill="#2563eb" fill-opacity="0.420" stroke="none"/>
<rect x="160.4" y="565.0" width="5.6" height="0.0" fill="#2563eb" fill-opacity="0.420" stroke="none"/>
<rect x="168.1" y="565.0" width="5.6" height="0.0" fill="#2563eb" fill-opacity="0.420" stroke="none"/>
<rect x="175.9" y="565.0" width="5.6" height="0.0" fill="#2563eb" fill-opacity="0.420" stroke="none"/>
<rect x="183.6" y="565.0" width="5.6" height="0.0" fill="#2563eb" fill-opacity="0.420" stroke="none"/>
<rect x="191.4" y="565.0" width="5.6" height="0.0" fill="#2563eb" fill-opacity="0.420" stroke="none"/>
<rect x="199.1" y="565.0" width="5.6" height="0.0" fill="#2563eb" fill-opacity="0.420" stroke="none"/>
<rect x="206.9" y="565.0" width="5.6" height="0.0" fill="#2563eb" fill-opacity="0.420" stroke="none"/>
<rect x="214.6" y="565.0" width="5.6" height="0.0" fill="#2563eb" fill-opacity="0.420" stroke="none"/>
<rect x="222.4" y="565.0" width="5.6" height="0.0" fill="#2563eb" fill-opacity="0.420" stroke="none"/>
<rect x="230.1" y="565.0" width="5.6" height="0.0" fill="#2563eb" fill-opacity="0.420" stroke="none"/>
<rect x="237.9" y="565.0" width="5.6" height="0.0" fill="#2563eb" fill-opacity="0.420" stroke="none"/>
<rect x="245.6" y="565.0" width="5.6" height="0.0" fill="#2563eb" fill-opacity="0.420" stroke="none"/>
<rect x="253.4" y="565.0" width="5.6" height="0.0" fill="#2563eb" fill-opacity="0.420" stroke="none"/>
<rect x="261.1" y="565.0" width="5.6" height="0.0" fill="#2563eb" fill-opacity="0.420" stroke="none"/>
<rect x="268.9" y="565.0" width="5.6" height="0.0" fill="#2563eb" fill-opacity="0.420" stroke="none"/>
<rect x="276.6" y="565.0" width="5.6" height="0.0" fill="#2563eb" fill-opacity="0.420" stroke="none"/>
<rect x="284.4" y="565.0" width="5.6" height="0.0" fill="#2563eb" fill-opacity="0.420" stroke="none"/>
<rect x="292.1" y="565.0" width="5.6" height="0.0" fill="#2563eb" fill-opacity="0.420" stroke="none"/>
<rect x="299.9" y="565.0" width="5.6" height="0.0" fill="#2563eb" fill-opacity="0.420" stroke="none"/>
<rect x="307.6" y="565.0" width="5.6" height="0.0" fill="#2563eb" fill-opacity="0.420" stroke="none"/>
<rect x="315.4" y="565.0" width="5.6" height="0.0" fill="#2563eb" fill-opacity="0.420" stroke="none"/>
<rect x="323.1" y="565.0" width="5.6" height="0.0" fill="#2563eb" fill-opacity="0.420" stroke="none"/>
<rect x="330.9" y="565.0" width="5.6" height="0.0" fill="#2563eb" fill-opacity="0.420" stroke="none"/>
<rect x="338.6" y="558.2" width="5.6" height="6.8" fill="#2563eb" fill-opacity="0.420" stroke="none"/>
<rect x="346.4" y="565.0" width="5.6" height="0.0" fill="#2563eb" fill-opacity="0.420" stroke="none"/>
<rect x="354.1" y="558.2" width="5.6" height="6.8" fill="#2563eb" fill-opacity="0.420" stroke="none"/>
<rect x="361.9" y="530.8" width="5.6" height="34.2" fill="#2563eb" fill-opacity="0.420" stroke="none"/>
<rect x="369.6" y="455.7" width="5.6" height="109.3" fill="#2563eb" fill-opacity="0.420" stroke="none"/>
<rect x="377.4" y="284.8" width="5.6" height="280.2" fill="#2563eb" fill-opacity="0.420" stroke="none"/>
<rect x="385.1" y="565.0" width="5.6" height="0.0" fill="#2563eb" fill-opacity="0.420" stroke="none"/>
<rect x="392.9" y="565.0" width="5.6" height="0.0" fill="#2563eb" fill-opacity="0.420" stroke="none"/>
<line x1="245.0" y1="145.0" x2="245.0" y2="565.0" stroke="#111827" stroke-width="1.5" stroke-dasharray="5,5"/>
<text x="253.0" y="163.0" font-family="Helvetica,Arial,sans-serif" font-size="14" font-weight="normal" fill="#111827" text-anchor="start">0.5</text>
<text x="245.0" y="617.0" font-family="Helvetica,Arial,sans-serif" font-size="15" font-weight="normal" fill="#111827" text-anchor="middle">prob_real</text>
<text x="30.0" y="355.0" font-family="Helvetica,Arial,sans-serif" font-size="15" font-weight="normal" fill="#111827" text-anchor="middle">share per bin</text>
<rect x="220.0" y="161.0" width="18.0" height="14.0" fill="#2563eb" fill-opacity="0.420" stroke="none"/>
<text x="246.0" y="174.0" font-family="Helvetica,Arial,sans-serif" font-size="14" font-weight="normal" fill="#111827" text-anchor="start">real n=64</text>
<rect x="220.0" y="185.0" width="18.0" height="14.0" fill="#dc2626" fill-opacity="0.420" stroke="none"/>
<text x="246.0" y="198.0" font-family="Helvetica,Arial,sans-serif" font-size="14" font-weight="normal" fill="#111827" text-anchor="start">generated n=600</text>
<text x="90.0" y="640.0" font-family="Helvetica,Arial,sans-serif" font-size="14" font-weight="normal" fill="#111827" text-anchor="start">real median: 0.927</text>
<text x="90.0" y="662.0" font-family="Helvetica,Arial,sans-serif" font-size="14" font-weight="normal" fill="#111827" text-anchor="start">gen median: 0.062</text>
<text x="90.0" y="684.0" font-family="Helvetica,Arial,sans-serif" font-size="14" font-weight="normal" fill="#111827" text-anchor="start">real &gt;=0.5: 100.0%</text>
<text x="90.0" y="706.0" font-family="Helvetica,Arial,sans-serif" font-size="14" font-weight="normal" fill="#111827" text-anchor="start">gen &lt;0.5: 99.3%</text>
<text x="450.0" y="123.0" font-family="Helvetica,Arial,sans-serif" font-size="22" font-weight="bold" fill="#111827" text-anchor="start">val: prob_real distribution</text>
<line x1="450.0" y1="565.0" x2="760.0" y2="565.0" stroke="#374151" stroke-width="1.5"/>
<line x1="450.0" y1="145.0" x2="450.0" y2="565.0" stroke="#374151" stroke-width="1.5"/>
<line x1="450.0" y1="565.0" x2="450.0" y2="571.0" stroke="#374151" stroke-width="1"/>
<text x="450.0" y="590.0" font-family="Helvetica,Arial,sans-serif" font-size="14" font-weight="normal" fill="#111827" text-anchor="middle">0.0</text>
<line x1="512.0" y1="565.0" x2="512.0" y2="571.0" stroke="#374151" stroke-width="1"/>
<text x="512.0" y="590.0" font-family="Helvetica,Arial,sans-serif" font-size="14" font-weight="normal" fill="#111827" text-anchor="middle">0.2</text>
<line x1="574.0" y1="565.0" x2="574.0" y2="571.0" stroke="#374151" stroke-width="1"/>
<text x="574.0" y="590.0" font-family="Helvetica,Arial,sans-serif" font-size="14" font-weight="normal" fill="#111827" text-anchor="middle">0.4</text>
<line x1="636.0" y1="565.0" x2="636.0" y2="571.0" stroke="#374151" stroke-width="1"/>
<text x="636.0" y="590.0" font-family="Helvetica,Arial,sans-serif" font-size="14" font-weight="normal" fill="#111827" text-anchor="middle">0.6</text>
<line x1="698.0" y1="565.0" x2="698.0" y2="571.0" stroke="#374151" stroke-width="1"/>
<text x="698.0" y="590.0" font-family="Helvetica,Arial,sans-serif" font-size="14" font-weight="normal" fill="#111827" text-anchor="middle">0.8</text>
<line x1="760.0" y1="565.0" x2="760.0" y2="571.0" stroke="#374151" stroke-width="1"/>
<text x="760.0" y="590.0" font-family="Helvetica,Arial,sans-serif" font-size="14" font-weight="normal" fill="#111827" text-anchor="middle">1.0</text>
<line x1="444.0" y1="565.0" x2="450.0" y2="565.0" stroke="#374151" stroke-width="1"/>
<text x="440.0" y="569.0" font-family="Helvetica,Arial,sans-serif" font-size="13" font-weight="normal" fill="#111827" text-anchor="end">0.00</text>
<line x1="444.0" y1="460.0" x2="450.0" y2="460.0" stroke="#374151" stroke-width="1"/>
<text x="440.0" y="464.0" font-family="Helvetica,Arial,sans-serif" font-size="13" font-weight="normal" fill="#111827" text-anchor="end">0.24</text>
<line x1="444.0" y1="355.0" x2="450.0" y2="355.0" stroke="#374151" stroke-width="1"/>
<text x="440.0" y="359.0" font-family="Helvetica,Arial,sans-serif" font-size="13" font-weight="normal" fill="#111827" text-anchor="end">0.49</text>
<line x1="444.0" y1="250.0" x2="450.0" y2="250.0" stroke="#374151" stroke-width="1"/>
<text x="440.0" y="254.0" font-family="Helvetica,Arial,sans-serif" font-size="13" font-weight="normal" fill="#111827" text-anchor="end">0.73</text>
<line x1="444.0" y1="145.0" x2="450.0" y2="145.0" stroke="#374151" stroke-width="1"/>
<text x="440.0" y="149.0" font-family="Helvetica,Arial,sans-serif" font-size="13" font-weight="normal" fill="#111827" text-anchor="end">0.98</text>
<rect x="450.0" y="565.0" width="7.1" height="0.0" fill="#dc2626" fill-opacity="0.420" stroke="none"/>
<rect x="457.8" y="565.0" width="7.1" height="0.0" fill="#dc2626" fill-opacity="0.420" stroke="none"/>
<rect x="465.5" y="199.8" width="7.1" height="365.2" fill="#dc2626" fill-opacity="0.420" stroke="none"/>
<rect x="473.2" y="539.2" width="7.1" height="25.8" fill="#dc2626" fill-opacity="0.420" stroke="none"/>
<rect x="481.0" y="560.7" width="7.1" height="4.3" fill="#dc2626" fill-opacity="0.420" stroke="none"/>
<rect x="488.8" y="550.0" width="7.1" height="15.0" fill="#dc2626" fill-opacity="0.420" stroke="none"/>
<rect x="496.5" y="556.4" width="7.1" height="8.6" fill="#dc2626" fill-opacity="0.420" stroke="none"/>
<rect x="504.2" y="560.7" width="7.1" height="4.3" fill="#dc2626" fill-opacity="0.420" stroke="none"/>
<rect x="512.0" y="562.9" width="7.1" height="2.1" fill="#dc2626" fill-opacity="0.420" stroke="none"/>
<rect x="519.8" y="560.7" width="7.1" height="4.3" fill="#dc2626" fill-opacity="0.420" stroke="none"/>
<rect x="527.5" y="565.0" width="7.1" height="0.0" fill="#dc2626" fill-opacity="0.420" stroke="none"/>
<rect x="535.2" y="565.0" width="7.1" height="0.0" fill="#dc2626" fill-opacity="0.420" stroke="none"/>
<rect x="543.0" y="565.0" width="7.1" height="0.0" fill="#dc2626" fill-opacity="0.420" stroke="none"/>
<rect x="550.8" y="565.0" width="7.1" height="0.0" fill="#dc2626" fill-opacity="0.420" stroke="none"/>
<rect x="558.5" y="565.0" width="7.1" height="0.0" fill="#dc2626" fill-opacity="0.420" stroke="none"/>
<rect x="566.2" y="565.0" width="7.1" height="0.0" fill="#dc2626" fill-opacity="0.420" stroke="none"/>
<rect x="574.0" y="565.0" width="7.1" height="0.0" fill="#dc2626" fill-opacity="0.420" stroke="none"/>
<rect x="581.8" y="565.0" width="7.1" height="0.0" fill="#dc2626" fill-opacity="0.420" stroke="none"/>
<rect x="589.5" y="565.0" width="7.1" height="0.0" fill="#dc2626" fill-opacity="0.420" stroke="none"/>
<rect x="597.2" y="565.0" width="7.1" height="0.0" fill="#dc2626" fill-opacity="0.420" stroke="none"/>
<rect x="605.0" y="565.0" width="7.1" height="0.0" fill="#dc2626" fill-opacity="0.420" stroke="none"/>
<rect x="612.8" y="565.0" width="7.1" height="0.0" fill="#dc2626" fill-opacity="0.420" stroke="none"/>
<rect x="620.5" y="565.0" width="7.1" height="0.0" fill="#dc2626" fill-opacity="0.420" stroke="none"/>
<rect x="628.2" y="565.0" width="7.1" height="0.0" fill="#dc2626" fill-opacity="0.420" stroke="none"/>
<rect x="636.0" y="565.0" width="7.1" height="0.0" fill="#dc2626" fill-opacity="0.420" stroke="none"/>
<rect x="643.8" y="565.0" width="7.1" height="0.0" fill="#dc2626" fill-opacity="0.420" stroke="none"/>
<rect x="651.5" y="565.0" width="7.1" height="0.0" fill="#dc2626" fill-opacity="0.420" stroke="none"/>
<rect x="659.2" y="565.0" width="7.1" height="0.0" fill="#dc2626" fill-opacity="0.420" stroke="none"/>
<rect x="667.0" y="565.0" width="7.1" height="0.0" fill="#dc2626" fill-opacity="0.420" stroke="none"/>
<rect x="674.8" y="565.0" width="7.1" height="0.0" fill="#dc2626" fill-opacity="0.420" stroke="none"/>
<rect x="682.5" y="565.0" width="7.1" height="0.0" fill="#dc2626" fill-opacity="0.420" stroke="none"/>
<rect x="690.2" y="565.0" width="7.1" height="0.0" fill="#dc2626" fill-opacity="0.420" stroke="none"/>
<rect x="698.0" y="565.0" width="7.1" height="0.0" fill="#dc2626" fill-opacity="0.420" stroke="none"/>
<rect x="705.8" y="565.0" width="7.1" height="0.0" fill="#dc2626" fill-opacity="0.420" stroke="none"/>
<rect x="713.5" y="565.0" width="7.1" height="0.0" fill="#dc2626" fill-opacity="0.420" stroke="none"/>
<rect x="721.2" y="565.0" width="7.1" height="0.0" fill="#dc2626" fill-opacity="0.420" stroke="none"/>
<rect x="729.0" y="565.0" width="7.1" height="0.0" fill="#dc2626" fill-opacity="0.420" stroke="none"/>
<rect x="736.8" y="565.0" width="7.1" height="0.0" fill="#dc2626" fill-opacity="0.420" stroke="none"/>
<rect x="744.5" y="565.0" width="7.1" height="0.0" fill="#dc2626" fill-opacity="0.420" stroke="none"/>
<rect x="752.2" y="565.0" width="7.1" height="0.0" fill="#dc2626" fill-opacity="0.420" stroke="none"/>
<rect x="450.6" y="565.0" width="5.6" height="0.0" fill="#2563eb" fill-opacity="0.420" stroke="none"/>
<rect x="458.4" y="565.0" width="5.6" height="0.0" fill="#2563eb" fill-opacity="0.420" stroke="none"/>
<rect x="466.1" y="565.0" width="5.6" height="0.0" fill="#2563eb" fill-opacity="0.420" stroke="none"/>
<rect x="473.9" y="565.0" width="5.6" height="0.0" fill="#2563eb" fill-opacity="0.420" stroke="none"/>
<rect x="481.6" y="565.0" width="5.6" height="0.0" fill="#2563eb" fill-opacity="0.420" stroke="none"/>
<rect x="489.4" y="565.0" width="5.6" height="0.0" fill="#2563eb" fill-opacity="0.420" stroke="none"/>
<rect x="497.1" y="442.2" width="5.6" height="122.8" fill="#2563eb" fill-opacity="0.420" stroke="none"/>
<rect x="504.9" y="360.4" width="5.6" height="204.6" fill="#2563eb" fill-opacity="0.420" stroke="none"/>
<rect x="512.6" y="483.2" width="5.6" height="81.8" fill="#2563eb" fill-opacity="0.420" stroke="none"/>
<rect x="520.4" y="544.5" width="5.6" height="20.5" fill="#2563eb" fill-opacity="0.420" stroke="none"/>
<rect x="528.1" y="565.0" width="5.6" height="0.0" fill="#2563eb" fill-opacity="0.420" stroke="none"/>
<rect x="535.9" y="565.0" width="5.6" height="0.0" fill="#2563eb" fill-opacity="0.420" stroke="none"/>
<rect x="543.6" y="565.0" width="5.6" height="0.0" fill="#2563eb" fill-opacity="0.420" stroke="none"/>
<rect x="551.4" y="565.0" width="5.6" height="0.0" fill="#2563eb" fill-opacity="0.420" stroke="none"/>
<rect x="559.1" y="565.0" width="5.6" height="0.0" fill="#2563eb" fill-opacity="0.420" stroke="none"/>
<rect x="566.9" y="565.0" width="5.6" height="0.0" fill="#2563eb" fill-opacity="0.420" stroke="none"/>
<rect x="574.6" y="565.0" width="5.6" height="0.0" fill="#2563eb" fill-opacity="0.420" stroke="none"/>
<rect x="582.4" y="565.0" width="5.6" height="0.0" fill="#2563eb" fill-opacity="0.420" stroke="none"/>
<rect x="590.1" y="565.0" width="5.6" height="0.0" fill="#2563eb" fill-opacity="0.420" stroke="none"/>
<rect x="597.9" y="565.0" width="5.6" height="0.0" fill="#2563eb" fill-opacity="0.420" stroke="none"/>
<rect x="605.6" y="565.0" width="5.6" height="0.0" fill="#2563eb" fill-opacity="0.420" stroke="none"/>
<rect x="613.4" y="565.0" width="5.6" height="0.0" fill="#2563eb" fill-opacity="0.420" stroke="none"/>
<rect x="621.1" y="565.0" width="5.6" height="0.0" fill="#2563eb" fill-opacity="0.420" stroke="none"/>
<rect x="628.9" y="565.0" width="5.6" height="0.0" fill="#2563eb" fill-opacity="0.420" stroke="none"/>
<rect x="636.6" y="565.0" width="5.6" height="0.0" fill="#2563eb" fill-opacity="0.420" stroke="none"/>
<rect x="644.4" y="565.0" width="5.6" height="0.0" fill="#2563eb" fill-opacity="0.420" stroke="none"/>
<rect x="652.1" y="565.0" width="5.6" height="0.0" fill="#2563eb" fill-opacity="0.420" stroke="none"/>
<rect x="659.9" y="565.0" width="5.6" height="0.0" fill="#2563eb" fill-opacity="0.420" stroke="none"/>
<rect x="667.6" y="565.0" width="5.6" height="0.0" fill="#2563eb" fill-opacity="0.420" stroke="none"/>
<rect x="675.4" y="565.0" width="5.6" height="0.0" fill="#2563eb" fill-opacity="0.420" stroke="none"/>
<rect x="683.1" y="565.0" width="5.6" height="0.0" fill="#2563eb" fill-opacity="0.420" stroke="none"/>
<rect x="690.9" y="565.0" width="5.6" height="0.0" fill="#2563eb" fill-opacity="0.420" stroke="none"/>
<rect x="698.6" y="565.0" width="5.6" height="0.0" fill="#2563eb" fill-opacity="0.420" stroke="none"/>
<rect x="706.4" y="565.0" width="5.6" height="0.0" fill="#2563eb" fill-opacity="0.420" stroke="none"/>
<rect x="714.1" y="565.0" width="5.6" height="0.0" fill="#2563eb" fill-opacity="0.420" stroke="none"/>
<rect x="721.9" y="565.0" width="5.6" height="0.0" fill="#2563eb" fill-opacity="0.420" stroke="none"/>
<rect x="729.6" y="565.0" width="5.6" height="0.0" fill="#2563eb" fill-opacity="0.420" stroke="none"/>
<rect x="737.4" y="565.0" width="5.6" height="0.0" fill="#2563eb" fill-opacity="0.420" stroke="none"/>
<rect x="745.1" y="565.0" width="5.6" height="0.0" fill="#2563eb" fill-opacity="0.420" stroke="none"/>
<rect x="752.9" y="565.0" width="5.6" height="0.0" fill="#2563eb" fill-opacity="0.420" stroke="none"/>
<line x1="605.0" y1="145.0" x2="605.0" y2="565.0" stroke="#111827" stroke-width="1.5" stroke-dasharray="5,5"/>
<text x="613.0" y="163.0" font-family="Helvetica,Arial,sans-serif" font-size="14" font-weight="normal" fill="#111827" text-anchor="start">0.5</text>
<text x="605.0" y="617.0" font-family="Helvetica,Arial,sans-serif" font-size="15" font-weight="normal" fill="#111827" text-anchor="middle">prob_real</text>
<text x="390.0" y="355.0" font-family="Helvetica,Arial,sans-serif" font-size="15" font-weight="normal" fill="#111827" text-anchor="middle">share per bin</text>
<rect x="580.0" y="161.0" width="18.0" height="14.0" fill="#2563eb" fill-opacity="0.420" stroke="none"/>
<text x="606.0" y="174.0" font-family="Helvetica,Arial,sans-serif" font-size="14" font-weight="normal" fill="#111827" text-anchor="start">real n=21</text>
<rect x="580.0" y="185.0" width="18.0" height="14.0" fill="#dc2626" fill-opacity="0.420" stroke="none"/>
<text x="606.0" y="198.0" font-family="Helvetica,Arial,sans-serif" font-size="14" font-weight="normal" fill="#111827" text-anchor="start">generated n=200</text>
<text x="450.0" y="640.0" font-family="Helvetica,Arial,sans-serif" font-size="14" font-weight="normal" fill="#111827" text-anchor="start">real median: 0.186</text>
<text x="450.0" y="662.0" font-family="Helvetica,Arial,sans-serif" font-size="14" font-weight="normal" fill="#111827" text-anchor="start">gen median: 0.062</text>
<text x="450.0" y="684.0" font-family="Helvetica,Arial,sans-serif" font-size="14" font-weight="normal" fill="#111827" text-anchor="start">real &gt;=0.5: 0.0%</text>
<text x="450.0" y="706.0" font-family="Helvetica,Arial,sans-serif" font-size="14" font-weight="normal" fill="#111827" text-anchor="start">gen &lt;0.5: 100.0%</text>
<text x="810.0" y="123.0" font-family="Helvetica,Arial,sans-serif" font-size="22" font-weight="bold" fill="#111827" text-anchor="start">test: prob_real distribution</text>
<line x1="810.0" y1="565.0" x2="1120.0" y2="565.0" stroke="#374151" stroke-width="1.5"/>
<line x1="810.0" y1="145.0" x2="810.0" y2="565.0" stroke="#374151" stroke-width="1.5"/>
<line x1="810.0" y1="565.0" x2="810.0" y2="571.0" stroke="#374151" stroke-width="1"/>
<text x="810.0" y="590.0" font-family="Helvetica,Arial,sans-serif" font-size="14" font-weight="normal" fill="#111827" text-anchor="middle">0.0</text>
<line x1="872.0" y1="565.0" x2="872.0" y2="571.0" stroke="#374151" stroke-width="1"/>
<text x="872.0" y="590.0" font-family="Helvetica,Arial,sans-serif" font-size="14" font-weight="normal" fill="#111827" text-anchor="middle">0.2</text>
<line x1="934.0" y1="565.0" x2="934.0" y2="571.0" stroke="#374151" stroke-width="1"/>
<text x="934.0" y="590.0" font-family="Helvetica,Arial,sans-serif" font-size="14" font-weight="normal" fill="#111827" text-anchor="middle">0.4</text>
<line x1="996.0" y1="565.0" x2="996.0" y2="571.0" stroke="#374151" stroke-width="1"/>
<text x="996.0" y="590.0" font-family="Helvetica,Arial,sans-serif" font-size="14" font-weight="normal" fill="#111827" text-anchor="middle">0.6</text>
<line x1="1058.0" y1="565.0" x2="1058.0" y2="571.0" stroke="#374151" stroke-width="1"/>
<text x="1058.0" y="590.0" font-family="Helvetica,Arial,sans-serif" font-size="14" font-weight="normal" fill="#111827" text-anchor="middle">0.8</text>
<line x1="1120.0" y1="565.0" x2="1120.0" y2="571.0" stroke="#374151" stroke-width="1"/>
<text x="1120.0" y="590.0" font-family="Helvetica,Arial,sans-serif" font-size="14" font-weight="normal" fill="#111827" text-anchor="middle">1.0</text>
<line x1="804.0" y1="565.0" x2="810.0" y2="565.0" stroke="#374151" stroke-width="1"/>
<text x="800.0" y="569.0" font-family="Helvetica,Arial,sans-serif" font-size="13" font-weight="normal" fill="#111827" text-anchor="end">0.00</text>
<line x1="804.0" y1="460.0" x2="810.0" y2="460.0" stroke="#374151" stroke-width="1"/>
<text x="800.0" y="464.0" font-family="Helvetica,Arial,sans-serif" font-size="13" font-weight="normal" fill="#111827" text-anchor="end">0.23</text>
<line x1="804.0" y1="355.0" x2="810.0" y2="355.0" stroke="#374151" stroke-width="1"/>
<text x="800.0" y="359.0" font-family="Helvetica,Arial,sans-serif" font-size="13" font-weight="normal" fill="#111827" text-anchor="end">0.46</text>
<line x1="804.0" y1="250.0" x2="810.0" y2="250.0" stroke="#374151" stroke-width="1"/>
<text x="800.0" y="254.0" font-family="Helvetica,Arial,sans-serif" font-size="13" font-weight="normal" fill="#111827" text-anchor="end">0.69</text>
<line x1="804.0" y1="145.0" x2="810.0" y2="145.0" stroke="#374151" stroke-width="1"/>
<text x="800.0" y="149.0" font-family="Helvetica,Arial,sans-serif" font-size="13" font-weight="normal" fill="#111827" text-anchor="end">0.92</text>
<rect x="810.0" y="565.0" width="7.1" height="0.0" fill="#dc2626" fill-opacity="0.420" stroke="none"/>
<rect x="817.8" y="558.2" width="7.1" height="6.8" fill="#dc2626" fill-opacity="0.420" stroke="none"/>
<rect x="825.5" y="199.8" width="7.1" height="365.2" fill="#dc2626" fill-opacity="0.420" stroke="none"/>
<rect x="833.2" y="526.2" width="7.1" height="38.8" fill="#dc2626" fill-opacity="0.420" stroke="none"/>
<rect x="841.0" y="558.2" width="7.1" height="6.8" fill="#dc2626" fill-opacity="0.420" stroke="none"/>
<rect x="848.8" y="551.3" width="7.1" height="13.7" fill="#dc2626" fill-opacity="0.420" stroke="none"/>
<rect x="856.5" y="551.3" width="7.1" height="13.7" fill="#dc2626" fill-opacity="0.420" stroke="none"/>
<rect x="864.2" y="565.0" width="7.1" height="0.0" fill="#dc2626" fill-opacity="0.420" stroke="none"/>
<rect x="872.0" y="560.4" width="7.1" height="4.6" fill="#dc2626" fill-opacity="0.420" stroke="none"/>
<rect x="879.8" y="565.0" width="7.1" height="0.0" fill="#dc2626" fill-opacity="0.420" stroke="none"/>
<rect x="887.5" y="565.0" width="7.1" height="0.0" fill="#dc2626" fill-opacity="0.420" stroke="none"/>
<rect x="895.2" y="565.0" width="7.1" height="0.0" fill="#dc2626" fill-opacity="0.420" stroke="none"/>
<rect x="903.0" y="565.0" width="7.1" height="0.0" fill="#dc2626" fill-opacity="0.420" stroke="none"/>
<rect x="910.8" y="565.0" width="7.1" height="0.0" fill="#dc2626" fill-opacity="0.420" stroke="none"/>
<rect x="918.5" y="565.0" width="7.1" height="0.0" fill="#dc2626" fill-opacity="0.420" stroke="none"/>
<rect x="926.2" y="565.0" width="7.1" height="0.0" fill="#dc2626" fill-opacity="0.420" stroke="none"/>
<rect x="934.0" y="565.0" width="7.1" height="0.0" fill="#dc2626" fill-opacity="0.420" stroke="none"/>
<rect x="941.8" y="565.0" width="7.1" height="0.0" fill="#dc2626" fill-opacity="0.420" stroke="none"/>
<rect x="949.5" y="565.0" width="7.1" height="0.0" fill="#dc2626" fill-opacity="0.420" stroke="none"/>
<rect x="957.2" y="565.0" width="7.1" height="0.0" fill="#dc2626" fill-opacity="0.420" stroke="none"/>
<rect x="965.0" y="562.7" width="7.1" height="2.3" fill="#dc2626" fill-opacity="0.420" stroke="none"/>
<rect x="972.8" y="562.7" width="7.1" height="2.3" fill="#dc2626" fill-opacity="0.420" stroke="none"/>
<rect x="980.5" y="565.0" width="7.1" height="0.0" fill="#dc2626" fill-opacity="0.420" stroke="none"/>
<rect x="988.2" y="565.0" width="7.1" height="0.0" fill="#dc2626" fill-opacity="0.420" stroke="none"/>
<rect x="996.0" y="565.0" width="7.1" height="0.0" fill="#dc2626" fill-opacity="0.420" stroke="none"/>
<rect x="1003.8" y="565.0" width="7.1" height="0.0" fill="#dc2626" fill-opacity="0.420" stroke="none"/>
<rect x="1011.5" y="562.7" width="7.1" height="2.3" fill="#dc2626" fill-opacity="0.420" stroke="none"/>
<rect x="1019.2" y="565.0" width="7.1" height="0.0" fill="#dc2626" fill-opacity="0.420" stroke="none"/>
<rect x="1027.0" y="565.0" width="7.1" height="0.0" fill="#dc2626" fill-opacity="0.420" stroke="none"/>
<rect x="1034.8" y="565.0" width="7.1" height="0.0" fill="#dc2626" fill-opacity="0.420" stroke="none"/>
<rect x="1042.5" y="565.0" width="7.1" height="0.0" fill="#dc2626" fill-opacity="0.420" stroke="none"/>
<rect x="1050.2" y="565.0" width="7.1" height="0.0" fill="#dc2626" fill-opacity="0.420" stroke="none"/>
<rect x="1058.0" y="565.0" width="7.1" height="0.0" fill="#dc2626" fill-opacity="0.420" stroke="none"/>
<rect x="1065.8" y="565.0" width="7.1" height="0.0" fill="#dc2626" fill-opacity="0.420" stroke="none"/>
<rect x="1073.5" y="565.0" width="7.1" height="0.0" fill="#dc2626" fill-opacity="0.420" stroke="none"/>
<rect x="1081.2" y="565.0" width="7.1" height="0.0" fill="#dc2626" fill-opacity="0.420" stroke="none"/>
<rect x="1089.0" y="565.0" width="7.1" height="0.0" fill="#dc2626" fill-opacity="0.420" stroke="none"/>
<rect x="1096.8" y="565.0" width="7.1" height="0.0" fill="#dc2626" fill-opacity="0.420" stroke="none"/>
<rect x="1104.5" y="565.0" width="7.1" height="0.0" fill="#dc2626" fill-opacity="0.420" stroke="none"/>
<rect x="1112.2" y="565.0" width="7.1" height="0.0" fill="#dc2626" fill-opacity="0.420" stroke="none"/>
<rect x="810.6" y="565.0" width="5.6" height="0.0" fill="#2563eb" fill-opacity="0.420" stroke="none"/>
<rect x="818.4" y="565.0" width="5.6" height="0.0" fill="#2563eb" fill-opacity="0.420" stroke="none"/>
<rect x="826.1" y="399.0" width="5.6" height="166.0" fill="#2563eb" fill-opacity="0.420" stroke="none"/>
<rect x="833.9" y="544.2" width="5.6" height="20.8" fill="#2563eb" fill-opacity="0.420" stroke="none"/>
<rect x="841.6" y="565.0" width="5.6" height="0.0" fill="#2563eb" fill-opacity="0.420" stroke="none"/>
<rect x="849.4" y="523.5" width="5.6" height="41.5" fill="#2563eb" fill-opacity="0.420" stroke="none"/>
<rect x="857.1" y="544.2" width="5.6" height="20.8" fill="#2563eb" fill-opacity="0.420" stroke="none"/>
<rect x="864.9" y="357.5" width="5.6" height="207.5" fill="#2563eb" fill-opacity="0.420" stroke="none"/>
<rect x="872.6" y="565.0" width="5.6" height="0.0" fill="#2563eb" fill-opacity="0.420" stroke="none"/>
<rect x="880.4" y="565.0" width="5.6" height="0.0" fill="#2563eb" fill-opacity="0.420" stroke="none"/>
<rect x="888.1" y="565.0" width="5.6" height="0.0" fill="#2563eb" fill-opacity="0.420" stroke="none"/>
<rect x="895.9" y="565.0" width="5.6" height="0.0" fill="#2563eb" fill-opacity="0.420" stroke="none"/>
<rect x="903.6" y="565.0" width="5.6" height="0.0" fill="#2563eb" fill-opacity="0.420" stroke="none"/>
<rect x="911.4" y="565.0" width="5.6" height="0.0" fill="#2563eb" fill-opacity="0.420" stroke="none"/>
<rect x="919.1" y="565.0" width="5.6" height="0.0" fill="#2563eb" fill-opacity="0.420" stroke="none"/>
<rect x="926.9" y="565.0" width="5.6" height="0.0" fill="#2563eb" fill-opacity="0.420" stroke="none"/>
<rect x="934.6" y="565.0" width="5.6" height="0.0" fill="#2563eb" fill-opacity="0.420" stroke="none"/>
<rect x="942.4" y="565.0" width="5.6" height="0.0" fill="#2563eb" fill-opacity="0.420" stroke="none"/>
<rect x="950.1" y="565.0" width="5.6" height="0.0" fill="#2563eb" fill-opacity="0.420" stroke="none"/>
<rect x="957.9" y="565.0" width="5.6" height="0.0" fill="#2563eb" fill-opacity="0.420" stroke="none"/>
<rect x="965.6" y="565.0" width="5.6" height="0.0" fill="#2563eb" fill-opacity="0.420" stroke="none"/>
<rect x="973.4" y="565.0" width="5.6" height="0.0" fill="#2563eb" fill-opacity="0.420" stroke="none"/>
<rect x="981.1" y="565.0" width="5.6" height="0.0" fill="#2563eb" fill-opacity="0.420" stroke="none"/>
<rect x="988.9" y="565.0" width="5.6" height="0.0" fill="#2563eb" fill-opacity="0.420" stroke="none"/>
<rect x="996.6" y="565.0" width="5.6" height="0.0" fill="#2563eb" fill-opacity="0.420" stroke="none"/>
<rect x="1004.4" y="565.0" width="5.6" height="0.0" fill="#2563eb" fill-opacity="0.420" stroke="none"/>
<rect x="1012.1" y="565.0" width="5.6" height="0.0" fill="#2563eb" fill-opacity="0.420" stroke="none"/>
<rect x="1019.9" y="565.0" width="5.6" height="0.0" fill="#2563eb" fill-opacity="0.420" stroke="none"/>
<rect x="1027.6" y="565.0" width="5.6" height="0.0" fill="#2563eb" fill-opacity="0.420" stroke="none"/>
<rect x="1035.4" y="565.0" width="5.6" height="0.0" fill="#2563eb" fill-opacity="0.420" stroke="none"/>
<rect x="1043.1" y="565.0" width="5.6" height="0.0" fill="#2563eb" fill-opacity="0.420" stroke="none"/>
<rect x="1050.9" y="565.0" width="5.6" height="0.0" fill="#2563eb" fill-opacity="0.420" stroke="none"/>
<rect x="1058.6" y="565.0" width="5.6" height="0.0" fill="#2563eb" fill-opacity="0.420" stroke="none"/>
<rect x="1066.4" y="565.0" width="5.6" height="0.0" fill="#2563eb" fill-opacity="0.420" stroke="none"/>
<rect x="1074.1" y="565.0" width="5.6" height="0.0" fill="#2563eb" fill-opacity="0.420" stroke="none"/>
<rect x="1081.9" y="565.0" width="5.6" height="0.0" fill="#2563eb" fill-opacity="0.420" stroke="none"/>
<rect x="1089.6" y="565.0" width="5.6" height="0.0" fill="#2563eb" fill-opacity="0.420" stroke="none"/>
<rect x="1097.4" y="565.0" width="5.6" height="0.0" fill="#2563eb" fill-opacity="0.420" stroke="none"/>
<rect x="1105.1" y="565.0" width="5.6" height="0.0" fill="#2563eb" fill-opacity="0.420" stroke="none"/>
<rect x="1112.9" y="565.0" width="5.6" height="0.0" fill="#2563eb" fill-opacity="0.420" stroke="none"/>
<line x1="965.0" y1="145.0" x2="965.0" y2="565.0" stroke="#111827" stroke-width="1.5" stroke-dasharray="5,5"/>
<text x="973.0" y="163.0" font-family="Helvetica,Arial,sans-serif" font-size="14" font-weight="normal" fill="#111827" text-anchor="start">0.5</text>
<text x="965.0" y="617.0" font-family="Helvetica,Arial,sans-serif" font-size="15" font-weight="normal" fill="#111827" text-anchor="middle">prob_real</text>
<text x="750.0" y="355.0" font-family="Helvetica,Arial,sans-serif" font-size="15" font-weight="normal" fill="#111827" text-anchor="middle">share per bin</text>
<rect x="940.0" y="161.0" width="18.0" height="14.0" fill="#2563eb" fill-opacity="0.420" stroke="none"/>
<text x="966.0" y="174.0" font-family="Helvetica,Arial,sans-serif" font-size="14" font-weight="normal" fill="#111827" text-anchor="start">real n=22</text>
<rect x="940.0" y="185.0" width="18.0" height="14.0" fill="#dc2626" fill-opacity="0.420" stroke="none"/>
<text x="966.0" y="198.0" font-family="Helvetica,Arial,sans-serif" font-size="14" font-weight="normal" fill="#111827" text-anchor="start">generated n=200</text>
<text x="810.0" y="640.0" font-family="Helvetica,Arial,sans-serif" font-size="14" font-weight="normal" fill="#111827" text-anchor="start">real median: 0.160</text>
<text x="810.0" y="662.0" font-family="Helvetica,Arial,sans-serif" font-size="14" font-weight="normal" fill="#111827" text-anchor="start">gen median: 0.062</text>
<text x="810.0" y="684.0" font-family="Helvetica,Arial,sans-serif" font-size="14" font-weight="normal" fill="#111827" text-anchor="start">real &gt;=0.5: 0.0%</text>
<text x="810.0" y="706.0" font-family="Helvetica,Arial,sans-serif" font-size="14" font-weight="normal" fill="#111827" text-anchor="start">gen &lt;0.5: 98.5%</text>
</svg>