<svg xmlns="http://www.w3.org/2000/svg" width="2300" height="1035" viewBox="0 0 2300 1035">
<rect width="100%" height="100%" fill="#f8fafc"/>
<style>text{font-family:-apple-system,BlinkMacSystemFont,"Segoe UI",sans-serif}.title{font-size:25px;font-weight:700;fill:#0f172a}.sub{font-size:15px;fill:#475569}.node-title{font-size:14px;font-weight:700;fill:#0f172a}.node-text{font-size:12px;fill:#334155}.edge{stroke:#94a3b8;stroke-width:2}.edge-label{font-size:12px;font-weight:700;fill:#475569}</style>
<text x="30" y="38" class="title">Tree 4 — gain合計 612.423</text>
<text x="30" y="66" class="sub">葉数 11 / 最大深さ 4 / 左枝: 条件成立 / 右枝: 条件不成立</text>
<line x1="1034.7" y1="149.0" x2="458.1" y2="231.0" class="edge"/>
<text x="746.4" y="185.0" text-anchor="middle" class="edge-label">Yes</text>
<line x1="458.1" y1="319.0" x2="227.5" y2="401.0" class="edge"/>
<text x="342.8" y="355.0" text-anchor="middle" class="edge-label">Yes</text>
<line x1="227.5" y1="489.0" x2="125.0" y2="571.0" class="edge"/>
<text x="176.2" y="525.0" text-anchor="middle" class="edge-label">Yes</text>
<line x1="227.5" y1="489.0" x2="330.0" y2="571.0" class="edge"/>
<text x="278.8" y="525.0" text-anchor="middle" class="edge-label">No</text>
<line x1="458.1" y1="319.0" x2="688.8" y2="401.0" class="edge"/>
<text x="573.4" y="355.0" text-anchor="middle" class="edge-label">No</text>
<line x1="688.8" y1="489.0" x2="535.0" y2="571.0" class="edge"/>
<text x="611.9" y="525.0" text-anchor="middle" class="edge-label">Yes</text>
<line x1="688.8" y1="489.0" x2="842.5" y2="571.0" class="edge"/>
<text x="765.6" y="525.0" text-anchor="middle" class="edge-label">No</text>
<line x1="842.5" y1="659.0" x2="740.0" y2="741.0" class="edge"/>
<text x="791.2" y="695.0" text-anchor="middle" class="edge-label">Yes</text>
<line x1="842.5" y1="659.0" x2="945.0" y2="741.0" class="edge"/>
<text x="893.8" y="695.0" text-anchor="middle" class="edge-label">No</text>
<line x1="1034.7" y1="149.0" x2="1611.2" y2="231.0" class="edge"/>
<text x="1323.0" y="185.0" text-anchor="middle" class="edge-label">No</text>
<line x1="1611.2" y1="319.0" x2="1303.8" y2="401.0" class="edge"/>
<text x="1457.5" y="355.0" text-anchor="middle" class="edge-label">Yes</text>
<line x1="1303.8" y1="489.0" x2="1150.0" y2="571.0" class="edge"/>
<text x="1226.9" y="525.0" text-anchor="middle" class="edge-label">Yes</text>
<line x1="1303.8" y1="489.0" x2="1457.5" y2="571.0" class="edge"/>
<text x="1380.6" y="525.0" text-anchor="middle" class="edge-label">No</text>
<line x1="1457.5" y1="659.0" x2="1355.0" y2="741.0" class="edge"/>
<text x="1406.2" y="695.0" text-anchor="middle" class="edge-label">Yes</text>
<line x1="1457.5" y1="659.0" x2="1560.0" y2="741.0" class="edge"/>
<text x="1508.8" y="695.0" text-anchor="middle" class="edge-label">No</text>
<line x1="1611.2" y1="319.0" x2="1918.8" y2="401.0" class="edge"/>
<text x="1765.0" y="355.0" text-anchor="middle" class="edge-label">No</text>
<line x1="1918.8" y1="489.0" x2="1765.0" y2="571.0" class="edge"/>
<text x="1841.9" y="525.0" text-anchor="middle" class="edge-label">Yes</text>
<line x1="1918.8" y1="489.0" x2="2072.5" y2="571.0" class="edge"/>
<text x="1995.6" y="525.0" text-anchor="middle" class="edge-label">No</text>
<line x1="2072.5" y1="659.0" x2="1970.0" y2="741.0" class="edge"/>
<text x="2021.2" y="695.0" text-anchor="middle" class="edge-label">Yes</text>
<line x1="2072.5" y1="659.0" x2="2175.0" y2="741.0" class="edge"/>
<text x="2123.8" y="695.0" text-anchor="middle" class="edge-label">No</text>
<rect x="939.7" y="61.0" width="190" height="88" rx="10" fill="#dbeafe" stroke="#2563eb"/>
<text x="1034.7" y="81.0" text-anchor="middle" class="node-title">joint_large_move_95</text>
<text x="1034.7" y="100.0" text-anchor="middle" class="node-text">標準化後 ≤ -0.12963</text>
<text x="1034.7" y="119.0" text-anchor="middle" class="node-text">元尺度 ≤ 0.006746</text>
<text x="1034.7" y="138.0" text-anchor="middle" class="node-text">gain 230.67 / 件数 904</text>
<rect x="363.1" y="231.0" width="190" height="88" rx="10" fill="#dbeafe" stroke="#2563eb"/>
<text x="458.1" y="251.0" text-anchor="middle" class="node-title">rate_std</text>
<text x="458.1" y="270.0" text-anchor="middle" class="node-text">標準化後 ≤ -1.0163</text>
<text x="458.1" y="289.0" text-anchor="middle" class="node-text">元尺度 ≤ 0.041359</text>
<text x="458.1" y="308.0" text-anchor="middle" class="node-text">gain 169.33 / 件数 523</text>
<rect x="132.5" y="401.0" width="190" height="88" rx="10" fill="#dbeafe" stroke="#2563eb"/>
<text x="227.5" y="421.0" text-anchor="middle" class="node-title">rate_tail_ratio</text>
<text x="227.5" y="440.0" text-anchor="middle" class="node-text">標準化後 ≤ 0.30451</text>
<text x="227.5" y="459.0" text-anchor="middle" class="node-text">元尺度 ≤ 3.1819</text>
<text x="227.5" y="478.0" text-anchor="middle" class="node-text">gain 0.033296 / 件数 42</text>
<rect x="30.0" y="571.0" width="190" height="88" rx="10" fill="#dcfce7" stroke="#64748b"/>
<text x="125.0" y="591.0" text-anchor="middle" class="node-title">Leaf 0</text>
<text x="125.0" y="610.0" text-anchor="middle" class="node-text">値 0.051453</text>
<text x="125.0" y="629.0" text-anchor="middle" class="node-text">件数 20</text>
<rect x="235.0" y="571.0" width="190" height="88" rx="10" fill="#dcfce7" stroke="#64748b"/>
<text x="330.0" y="591.0" text-anchor="middle" class="node-title">Leaf 7</text>
<text x="330.0" y="610.0" text-anchor="middle" class="node-text">値 0.054102</text>
<text x="330.0" y="629.0" text-anchor="middle" class="node-text">件数 22</text>
<rect x="593.8" y="401.0" width="190" height="88" rx="10" fill="#dbeafe" stroke="#2563eb"/>
<text x="688.8" y="421.0" text-anchor="middle" class="node-title">corr_sp_rate</text>
<text x="688.8" y="440.0" text-anchor="middle" class="node-text">標準化後 ≤ -0.91019</text>
<text x="688.8" y="459.0" text-anchor="middle" class="node-text">元尺度 ≤ -0.30162</text>
<text x="688.8" y="478.0" text-anchor="middle" class="node-text">gain 21.027 / 件数 481</text>
<rect x="440.0" y="571.0" width="190" height="88" rx="10" fill="#dcfce7" stroke="#64748b"/>
<text x="535.0" y="591.0" text-anchor="middle" class="node-title">Leaf 2</text>
<text x="535.0" y="610.0" text-anchor="middle" class="node-text">値 0.007965</text>
<text x="535.0" y="629.0" text-anchor="middle" class="node-text">件数 20</text>
<rect x="747.5" y="571.0" width="190" height="88" rx="10" fill="#dbeafe" stroke="#2563eb"/>
<text x="842.5" y="591.0" text-anchor="middle" class="node-title">sp_std</text>
<text x="842.5" y="610.0" text-anchor="middle" class="node-text">標準化後 ≤ -0.90576</text>
<text x="842.5" y="629.0" text-anchor="middle" class="node-text">元尺度 ≤ 0.0085047</text>
<text x="842.5" y="648.0" text-anchor="middle" class="node-text">gain 0.012398 / 件数 461</text>
<rect x="645.0" y="741.0" width="190" height="88" rx="10" fill="#fee2e2" stroke="#64748b"/>
<text x="740.0" y="761.0" text-anchor="middle" class="node-title">Leaf 5</text>
<text x="740.0" y="780.0" text-anchor="middle" class="node-text">値 -0.05572</text>
<text x="740.0" y="799.0" text-anchor="middle" class="node-text">件数 23</text>
<rect x="850.0" y="741.0" width="190" height="88" rx="10" fill="#fee2e2" stroke="#64748b"/>
<text x="945.0" y="761.0" text-anchor="middle" class="node-title">Leaf 8</text>
<text x="945.0" y="780.0" text-anchor="middle" class="node-text">値 -0.054021</text>
<text x="945.0" y="799.0" text-anchor="middle" class="node-text">件数 438</text>
<rect x="1516.2" y="231.0" width="190" height="88" rx="10" fill="#dbeafe" stroke="#2563eb"/>
<text x="1611.2" y="251.0" text-anchor="middle" class="node-title">corr_sp_rate</text>
<text x="1611.2" y="270.0" text-anchor="middle" class="node-text">標準化後 ≤ 1.4571</text>
<text x="1611.2" y="289.0" text-anchor="middle" class="node-text">元尺度 ≤ 0.46537</text>
<text x="1611.2" y="308.0" text-anchor="middle" class="node-text">gain 136.38 / 件数 381</text>
<rect x="1208.8" y="401.0" width="190" height="88" rx="10" fill="#dbeafe" stroke="#2563eb"/>
<text x="1303.8" y="421.0" text-anchor="middle" class="node-title">sp_kurt</text>
<text x="1303.8" y="440.0" text-anchor="middle" class="node-text">標準化後 ≤ -0.38493</text>
<text x="1303.8" y="459.0" text-anchor="middle" class="node-text">元尺度 ≤ 1.1931</text>
<text x="1303.8" y="478.0" text-anchor="middle" class="node-text">gain 34.862 / 件数 291</text>
<rect x="1055.0" y="571.0" width="190" height="88" rx="10" fill="#fee2e2" stroke="#64748b"/>
<text x="1150.0" y="591.0" text-anchor="middle" class="node-title">Leaf 1</text>
<text x="1150.0" y="610.0" text-anchor="middle" class="node-text">値 -0.057037</text>
<text x="1150.0" y="629.0" text-anchor="middle" class="node-text">件数 18</text>
<rect x="1362.5" y="571.0" width="190" height="88" rx="10" fill="#dbeafe" stroke="#2563eb"/>
<text x="1457.5" y="591.0" text-anchor="middle" class="node-title">rate_tail_ratio</text>
<text x="1457.5" y="610.0" text-anchor="middle" class="node-text">標準化後 ≤ 0.62387</text>
<text x="1457.5" y="629.0" text-anchor="middle" class="node-text">元尺度 ≤ 3.2663</text>
<text x="1457.5" y="648.0" text-anchor="middle" class="node-text">gain 20.113 / 件数 273</text>
<rect x="1260.0" y="741.0" width="190" height="88" rx="10" fill="#dcfce7" stroke="#64748b"/>
<text x="1355.0" y="761.0" text-anchor="middle" class="node-title">Leaf 4</text>
<text x="1355.0" y="780.0" text-anchor="middle" class="node-text">値 0.048383</text>
<text x="1355.0" y="799.0" text-anchor="middle" class="node-text">件数 230</text>
<rect x="1465.0" y="741.0" width="190" height="88" rx="10" fill="#dcfce7" stroke="#64748b"/>
<text x="1560.0" y="761.0" text-anchor="middle" class="node-title">Leaf 6</text>
<text x="1560.0" y="780.0" text-anchor="middle" class="node-text">値 0.0057773</text>
<text x="1560.0" y="799.0" text-anchor="middle" class="node-text">件数 43</text>
<rect x="1823.8" y="401.0" width="190" height="88" rx="10" fill="#dbeafe" stroke="#2563eb"/>
<text x="1918.8" y="421.0" text-anchor="middle" class="node-title">rate_abs_acf1</text>
<text x="1918.8" y="440.0" text-anchor="middle" class="node-text">標準化後 ≤ -0.49796</text>
<text x="1918.8" y="459.0" text-anchor="middle" class="node-text">元尺度 ≤ 0.11693</text>
<text x="1918.8" y="478.0" text-anchor="middle" class="node-text">gain 0.00058071 / 件数 90</text>
<rect x="1670.0" y="571.0" width="190" height="88" rx="10" fill="#fee2e2" stroke="#64748b"/>
<text x="1765.0" y="591.0" text-anchor="middle" class="node-title">Leaf 3</text>
<text x="1765.0" y="610.0" text-anchor="middle" class="node-text">値 -0.054366</text>
<text x="1765.0" y="629.0" text-anchor="middle" class="node-text">件数 21</text>
<rect x="1977.5" y="571.0" width="190" height="88" rx="10" fill="#dbeafe" stroke="#2563eb"/>
<text x="2072.5" y="591.0" text-anchor="middle" class="node-title">sp_skew</text>
<text x="2072.5" y="610.0" text-anchor="middle" class="node-text">標準化後 ≤ -0.062207</text>
<text x="2072.5" y="629.0" text-anchor="middle" class="node-text">元尺度 ≤ -0.21718</text>
<text x="2072.5" y="648.0" text-anchor="middle" class="node-text">gain 0.00018106 / 件数 69</text>
<rect x="1875.0" y="741.0" width="190" height="88" rx="10" fill="#fee2e2" stroke="#64748b"/>
<text x="1970.0" y="761.0" text-anchor="middle" class="node-title">Leaf 9</text>
<text x="1970.0" y="780.0" text-anchor="middle" class="node-text">値 -0.054118</text>
<text x="1970.0" y="799.0" text-anchor="middle" class="node-text">件数 20</text>
<rect x="2080.0" y="741.0" width="190" height="88" rx="10" fill="#fee2e2" stroke="#64748b"/>
<text x="2175.0" y="761.0" text-anchor="middle" class="node-title">Leaf 10</text>
<text x="2175.0" y="780.0" text-anchor="middle" class="node-text">値 -0.053863</text>
<text x="2175.0" y="799.0" text-anchor="middle" class="node-text">件数 49</text>
</svg>