<svg xmlns="http://www.w3.org/2000/svg" width="1890" height="1035" viewBox="0 0 1890 1035">
<rect width="100%" height="100%" fill="#f8fafc"/>
<style>text{font-family:-apple-system,BlinkMacSystemFont,"Segoe UI",sans-serif}.title{font-size:25px;font-weight:700;fill:#0f172a}.sub{font-size:15px;fill:#475569}.node-title{font-size:14px;font-weight:700;fill:#0f172a}.node-text{font-size:12px;fill:#334155}.edge{stroke:#94a3b8;stroke-width:2}.edge-label{font-size:12px;font-weight:700;fill:#475569}</style>
<text x="30" y="38" class="title">Tree 0 — gain合計 773.065</text>
<text x="30" y="66" class="sub">葉数 9 / 最大深さ 4 / 左枝: 条件成立 / 右枝: 条件不成立</text>
<line x1="868.1" y1="149.0" x2="381.2" y2="231.0" class="edge"/>
<text x="624.7" y="185.0" text-anchor="middle" class="edge-label">Yes</text>
<line x1="381.2" y1="319.0" x2="227.5" y2="401.0" class="edge"/>
<text x="304.4" y="355.0" text-anchor="middle" class="edge-label">Yes</text>
<line x1="227.5" y1="489.0" x2="125.0" y2="571.0" class="edge"/>
<text x="176.2" y="525.0" text-anchor="middle" class="edge-label">Yes</text>
<line x1="227.5" y1="489.0" x2="330.0" y2="571.0" class="edge"/>
<text x="278.8" y="525.0" text-anchor="middle" class="edge-label">No</text>
<line x1="381.2" y1="319.0" x2="535.0" y2="401.0" class="edge"/>
<text x="458.1" y="355.0" text-anchor="middle" class="edge-label">No</text>
<line x1="868.1" y1="149.0" x2="1355.0" y2="231.0" class="edge"/>
<text x="1111.6" y="185.0" text-anchor="middle" class="edge-label">No</text>
<line x1="1355.0" y1="319.0" x2="1047.5" y2="401.0" class="edge"/>
<text x="1201.2" y="355.0" text-anchor="middle" class="edge-label">Yes</text>
<line x1="1047.5" y1="489.0" x2="842.5" y2="571.0" class="edge"/>
<text x="945.0" y="525.0" text-anchor="middle" class="edge-label">Yes</text>
<line x1="842.5" y1="659.0" x2="740.0" y2="741.0" class="edge"/>
<text x="791.2" y="695.0" text-anchor="middle" class="edge-label">Yes</text>
<line x1="842.5" y1="659.0" x2="945.0" y2="741.0" class="edge"/>
<text x="893.8" y="695.0" text-anchor="middle" class="edge-label">No</text>
<line x1="1047.5" y1="489.0" x2="1252.5" y2="571.0" class="edge"/>
<text x="1150.0" y="525.0" text-anchor="middle" class="edge-label">No</text>
<line x1="1252.5" y1="659.0" x2="1150.0" y2="741.0" class="edge"/>
<text x="1201.2" y="695.0" text-anchor="middle" class="edge-label">Yes</text>
<line x1="1252.5" y1="659.0" x2="1355.0" y2="741.0" class="edge"/>
<text x="1303.8" y="695.0" text-anchor="middle" class="edge-label">No</text>
<line x1="1355.0" y1="319.0" x2="1662.5" y2="401.0" class="edge"/>
<text x="1508.8" y="355.0" text-anchor="middle" class="edge-label">No</text>
<line x1="1662.5" y1="489.0" x2="1560.0" y2="571.0" class="edge"/>
<text x="1611.2" y="525.0" text-anchor="middle" class="edge-label">Yes</text>
<line x1="1662.5" y1="489.0" x2="1765.0" y2="571.0" class="edge"/>
<text x="1713.8" y="525.0" text-anchor="middle" class="edge-label">No</text>
<rect x="773.1" y="61.0" width="190" height="88" rx="10" fill="#dbeafe" stroke="#2563eb"/>
<text x="868.1" y="81.0" text-anchor="middle" class="node-title">joint_large_move_95</text>
<text x="868.1" y="100.0" text-anchor="middle" class="node-text">標準化後 ≤ -0.12963</text>
<text x="868.1" y="119.0" text-anchor="middle" class="node-text">元尺度 ≤ 0.006746</text>
<text x="868.1" y="138.0" text-anchor="middle" class="node-text">gain 282.46 / 件数 899</text>
<rect x="286.2" y="231.0" width="190" height="88" rx="10" fill="#dbeafe" stroke="#2563eb"/>
<text x="381.2" y="251.0" text-anchor="middle" class="node-title">sp_acf1</text>
<text x="381.2" y="270.0" text-anchor="middle" class="node-text">標準化後 ≤ 1.7315</text>
<text x="381.2" y="289.0" text-anchor="middle" class="node-text">元尺度 ≤ 0.21537</text>
<text x="381.2" y="308.0" text-anchor="middle" class="node-text">gain 224.91 / 件数 520</text>
<rect x="132.5" y="401.0" width="190" height="88" rx="10" fill="#dbeafe" stroke="#2563eb"/>
<text x="227.5" y="421.0" text-anchor="middle" class="node-title">sp_std</text>
<text x="227.5" y="440.0" text-anchor="middle" class="node-text">標準化後 ≤ -0.94935</text>
<text x="227.5" y="459.0" text-anchor="middle" class="node-text">元尺度 ≤ 0.0083948</text>
<text x="227.5" y="478.0" text-anchor="middle" class="node-text">gain 19.031 / 件数 477</text>
<rect x="30.0" y="571.0" width="190" height="88" rx="10" fill="#dcfce7" stroke="#64748b"/>
<text x="125.0" y="591.0" text-anchor="middle" class="node-title">Leaf 0</text>
<text x="125.0" y="610.0" text-anchor="middle" class="node-text">値 0.00025111</text>
<text x="125.0" y="629.0" text-anchor="middle" class="node-text">件数 20</text>
<rect x="235.0" y="571.0" width="190" height="88" rx="10" fill="#fee2e2" stroke="#64748b"/>
<text x="330.0" y="591.0" text-anchor="middle" class="node-title">Leaf 6</text>
<text x="330.0" y="610.0" text-anchor="middle" class="node-text">値 -0.06</text>
<text x="330.0" y="629.0" text-anchor="middle" class="node-text">件数 457</text>
<rect x="440.0" y="401.0" width="190" height="88" rx="10" fill="#dcfce7" stroke="#64748b"/>
<text x="535.0" y="421.0" text-anchor="middle" class="node-title">Leaf 2</text>
<text x="535.0" y="440.0" text-anchor="middle" class="node-text">値 0.06</text>
<text x="535.0" y="459.0" text-anchor="middle" class="node-text">件数 43</text>
<rect x="1260.0" y="231.0" width="190" height="88" rx="10" fill="#dbeafe" stroke="#2563eb"/>
<text x="1355.0" y="251.0" text-anchor="middle" class="node-title">corr_sp_rate</text>
<text x="1355.0" y="270.0" text-anchor="middle" class="node-text">標準化後 ≤ 1.4571</text>
<text x="1355.0" y="289.0" text-anchor="middle" class="node-text">元尺度 ≤ 0.46537</text>
<text x="1355.0" y="308.0" text-anchor="middle" class="node-text">gain 168.47 / 件数 379</text>
<rect x="952.5" y="401.0" width="190" height="88" rx="10" fill="#dbeafe" stroke="#2563eb"/>
<text x="1047.5" y="421.0" text-anchor="middle" class="node-title">rate_tail_ratio</text>
<text x="1047.5" y="440.0" text-anchor="middle" class="node-text">標準化後 ≤ 0.64971</text>
<text x="1047.5" y="459.0" text-anchor="middle" class="node-text">元尺度 ≤ 3.2732</text>
<text x="1047.5" y="478.0" text-anchor="middle" class="node-text">gain 28.077 / 件数 290</text>
<rect x="747.5" y="571.0" width="190" height="88" rx="10" fill="#dbeafe" stroke="#2563eb"/>
<text x="842.5" y="591.0" text-anchor="middle" class="node-title">joint_large_move_95</text>
<text x="842.5" y="610.0" text-anchor="middle" class="node-text">標準化後 ≤ 0.21271</text>
<text x="842.5" y="629.0" text-anchor="middle" class="node-text">元尺度 ≤ 0.009127</text>
<text x="842.5" y="648.0" text-anchor="middle" class="node-text">gain 15.213 / 件数 246</text>
<rect x="645.0" y="741.0" width="190" height="88" rx="10" fill="#dcfce7" stroke="#64748b"/>
<text x="740.0" y="761.0" text-anchor="middle" class="node-title">Leaf 1</text>
<text x="740.0" y="780.0" text-anchor="middle" class="node-text">値 0.029817</text>
<text x="740.0" y="799.0" text-anchor="middle" class="node-text">件数 77</text>
<rect x="850.0" y="741.0" width="190" height="88" rx="10" fill="#dcfce7" stroke="#64748b"/>
<text x="945.0" y="761.0" text-anchor="middle" class="node-title">Leaf 7</text>
<text x="945.0" y="780.0" text-anchor="middle" class="node-text">値 0.057518</text>
<text x="945.0" y="799.0" text-anchor="middle" class="node-text">件数 169</text>
<rect x="1157.5" y="571.0" width="190" height="88" rx="10" fill="#dbeafe" stroke="#2563eb"/>
<text x="1252.5" y="591.0" text-anchor="middle" class="node-title">rate_acf5</text>
<text x="1252.5" y="610.0" text-anchor="middle" class="node-text">標準化後 ≤ 1.2501</text>
<text x="1252.5" y="629.0" text-anchor="middle" class="node-text">元尺度 ≤ 0.05047</text>
<text x="1252.5" y="648.0" text-anchor="middle" class="node-text">gain 34.909 / 件数 44</text>
<rect x="1055.0" y="741.0" width="190" height="88" rx="10" fill="#fee2e2" stroke="#64748b"/>
<text x="1150.0" y="761.0" text-anchor="middle" class="node-title">Leaf 4</text>
<text x="1150.0" y="780.0" text-anchor="middle" class="node-text">値 -0.051273</text>
<text x="1150.0" y="799.0" text-anchor="middle" class="node-text">件数 31</text>
<rect x="1260.0" y="741.0" width="190" height="88" rx="10" fill="#dcfce7" stroke="#64748b"/>
<text x="1355.0" y="761.0" text-anchor="middle" class="node-title">Leaf 5</text>
<text x="1355.0" y="780.0" text-anchor="middle" class="node-text">値 0.055895</text>
<text x="1355.0" y="799.0" text-anchor="middle" class="node-text">件数 13</text>
<rect x="1567.5" y="401.0" width="190" height="88" rx="10" fill="#dbeafe" stroke="#2563eb"/>
<text x="1662.5" y="421.0" text-anchor="middle" class="node-title">rate_std</text>
<text x="1662.5" y="440.0" text-anchor="middle" class="node-text">標準化後 ≤ -0.97779</text>
<text x="1662.5" y="459.0" text-anchor="middle" class="node-text">元尺度 ≤ 0.042359</text>
<text x="1662.5" y="478.0" text-anchor="middle" class="node-text">gain 1.4211e-14 / 件数 89</text>
<rect x="1465.0" y="571.0" width="190" height="88" rx="10" fill="#fee2e2" stroke="#64748b"/>
<text x="1560.0" y="591.0" text-anchor="middle" class="node-title">Leaf 3</text>
<text x="1560.0" y="610.0" text-anchor="middle" class="node-text">値 -0.06</text>
<text x="1560.0" y="629.0" text-anchor="middle" class="node-text">件数 67</text>
<rect x="1670.0" y="571.0" width="190" height="88" rx="10" fill="#fee2e2" stroke="#64748b"/>
<text x="1765.0" y="591.0" text-anchor="middle" class="node-title">Leaf 8</text>
<text x="1765.0" y="610.0" text-anchor="middle" class="node-text">値 -0.06</text>
<text x="1765.0" y="629.0" text-anchor="middle" class="node-text">件数 22</text>
</svg>