<svg xmlns="http://www.w3.org/2000/svg" width="2505" height="1035" viewBox="0 0 2505 1035">
<rect width="100%" height="100%" fill="#f8fafc"/>
<style>text{font-family:-apple-system,BlinkMacSystemFont,"Segoe UI",sans-serif}.title{font-size:25px;font-weight:700;fill:#0f172a}.sub{font-size:15px;fill:#475569}.node-title{font-size:14px;font-weight:700;fill:#0f172a}.node-text{font-size:12px;fill:#334155}.edge{stroke:#94a3b8;stroke-width:2}.edge-label{font-size:12px;font-weight:700;fill:#475569}</style>
<text x="30" y="38" class="title">Tree 2 — gain合計 701.063</text>
<text x="30" y="66" class="sub">葉数 12 / 最大深さ 4 / 左枝: 条件成立 / 右枝: 条件不成立</text>
<line x1="983.4" y1="149.0" x2="304.4" y2="231.0" class="edge"/>
<text x="643.9" y="185.0" text-anchor="middle" class="edge-label">Yes</text>
<line x1="304.4" y1="319.0" x2="125.0" y2="401.0" class="edge"/>
<text x="214.7" y="355.0" text-anchor="middle" class="edge-label">Yes</text>
<line x1="304.4" y1="319.0" x2="483.8" y2="401.0" class="edge"/>
<text x="394.1" y="355.0" text-anchor="middle" class="edge-label">No</text>
<line x1="483.8" y1="489.0" x2="330.0" y2="571.0" class="edge"/>
<text x="406.9" y="525.0" text-anchor="middle" class="edge-label">Yes</text>
<line x1="483.8" y1="489.0" x2="637.5" y2="571.0" class="edge"/>
<text x="560.6" y="525.0" text-anchor="middle" class="edge-label">No</text>
<line x1="637.5" y1="659.0" x2="535.0" y2="741.0" class="edge"/>
<text x="586.2" y="695.0" text-anchor="middle" class="edge-label">Yes</text>
<line x1="637.5" y1="659.0" x2="740.0" y2="741.0" class="edge"/>
<text x="688.8" y="695.0" text-anchor="middle" class="edge-label">No</text>
<line x1="983.4" y1="149.0" x2="1662.5" y2="231.0" class="edge"/>
<text x="1323.0" y="185.0" text-anchor="middle" class="edge-label">No</text>
<line x1="1662.5" y1="319.0" x2="1252.5" y2="401.0" class="edge"/>
<text x="1457.5" y="355.0" text-anchor="middle" class="edge-label">Yes</text>
<line x1="1252.5" y1="489.0" x2="1047.5" y2="571.0" class="edge"/>
<text x="1150.0" y="525.0" text-anchor="middle" class="edge-label">Yes</text>
<line x1="1047.5" y1="659.0" x2="945.0" y2="741.0" class="edge"/>
<text x="996.2" y="695.0" text-anchor="middle" class="edge-label">Yes</text>
<line x1="1047.5" y1="659.0" x2="1150.0" y2="741.0" class="edge"/>
<text x="1098.8" y="695.0" text-anchor="middle" class="edge-label">No</text>
<line x1="1252.5" y1="489.0" x2="1457.5" y2="571.0" class="edge"/>
<text x="1355.0" y="525.0" text-anchor="middle" class="edge-label">No</text>
<line x1="1457.5" y1="659.0" x2="1355.0" y2="741.0" class="edge"/>
<text x="1406.2" y="695.0" text-anchor="middle" class="edge-label">Yes</text>
<line x1="1457.5" y1="659.0" x2="1560.0" y2="741.0" class="edge"/>
<text x="1508.8" y="695.0" text-anchor="middle" class="edge-label">No</text>
<line x1="1662.5" y1="319.0" x2="2072.5" y2="401.0" class="edge"/>
<text x="1867.5" y="355.0" text-anchor="middle" class="edge-label">No</text>
<line x1="2072.5" y1="489.0" x2="1867.5" y2="571.0" class="edge"/>
<text x="1970.0" y="525.0" text-anchor="middle" class="edge-label">Yes</text>
<line x1="1867.5" y1="659.0" x2="1765.0" y2="741.0" class="edge"/>
<text x="1816.2" y="695.0" text-anchor="middle" class="edge-label">Yes</text>
<line x1="1867.5" y1="659.0" x2="1970.0" y2="741.0" class="edge"/>
<text x="1918.8" y="695.0" text-anchor="middle" class="edge-label">No</text>
<line x1="2072.5" y1="489.0" x2="2277.5" y2="571.0" class="edge"/>
<text x="2175.0" y="525.0" text-anchor="middle" class="edge-label">No</text>
<line x1="2277.5" y1="659.0" x2="2175.0" y2="741.0" class="edge"/>
<text x="2226.2" y="695.0" text-anchor="middle" class="edge-label">Yes</text>
<line x1="2277.5" y1="659.0" x2="2380.0" y2="741.0" class="edge"/>
<text x="2328.8" y="695.0" text-anchor="middle" class="edge-label">No</text>
<rect x="888.4" y="61.0" width="190" height="88" rx="10" fill="#dbeafe" stroke="#2563eb"/>
<text x="983.4" y="81.0" text-anchor="middle" class="node-title">sp_kurt</text>
<text x="983.4" y="100.0" text-anchor="middle" class="node-text">標準化後 ≤ -0.38493</text>
<text x="983.4" y="119.0" text-anchor="middle" class="node-text">元尺度 ≤ 1.1931</text>
<text x="983.4" y="138.0" text-anchor="middle" class="node-text">gain 207.67 / 件数 893</text>
<rect x="209.4" y="231.0" width="190" height="88" rx="10" fill="#dbeafe" stroke="#2563eb"/>
<text x="304.4" y="251.0" text-anchor="middle" class="node-title">sp_std</text>
<text x="304.4" y="270.0" text-anchor="middle" class="node-text">標準化後 ≤ -0.94935</text>
<text x="304.4" y="289.0" text-anchor="middle" class="node-text">元尺度 ≤ 0.0083948</text>
<text x="304.4" y="308.0" text-anchor="middle" class="node-text">gain 0.0034963 / 件数 261</text>
<rect x="30.0" y="401.0" width="190" height="88" rx="10" fill="#fee2e2" stroke="#64748b"/>
<text x="125.0" y="421.0" text-anchor="middle" class="node-title">Leaf 0</text>
<text x="125.0" y="440.0" text-anchor="middle" class="node-text">値 -0.05789</text>
<text x="125.0" y="459.0" text-anchor="middle" class="node-text">件数 20</text>
<rect x="388.8" y="401.0" width="190" height="88" rx="10" fill="#dbeafe" stroke="#2563eb"/>
<text x="483.8" y="421.0" text-anchor="middle" class="node-title">rate_abs_acf1</text>
<text x="483.8" y="440.0" text-anchor="middle" class="node-text">標準化後 ≤ -1.1054</text>
<text x="483.8" y="459.0" text-anchor="middle" class="node-text">元尺度 ≤ 0.051815</text>
<text x="483.8" y="478.0" text-anchor="middle" class="node-text">gain 0.0022181 / 件数 241</text>
<rect x="235.0" y="571.0" width="190" height="88" rx="10" fill="#fee2e2" stroke="#64748b"/>
<text x="330.0" y="591.0" text-anchor="middle" class="node-title">Leaf 9</text>
<text x="330.0" y="610.0" text-anchor="middle" class="node-text">値 -0.057629</text>
<text x="330.0" y="629.0" text-anchor="middle" class="node-text">件数 20</text>
<rect x="542.5" y="571.0" width="190" height="88" rx="10" fill="#dbeafe" stroke="#2563eb"/>
<text x="637.5" y="591.0" text-anchor="middle" class="node-title">corr_sp_rate</text>
<text x="637.5" y="610.0" text-anchor="middle" class="node-text">標準化後 ≤ -0.77975</text>
<text x="637.5" y="629.0" text-anchor="middle" class="node-text">元尺度 ≤ -0.25936</text>
<text x="637.5" y="648.0" text-anchor="middle" class="node-text">gain 0.0011774 / 件数 221</text>
<rect x="440.0" y="741.0" width="190" height="88" rx="10" fill="#fee2e2" stroke="#64748b"/>
<text x="535.0" y="761.0" text-anchor="middle" class="node-title">Leaf 10</text>
<text x="535.0" y="780.0" text-anchor="middle" class="node-text">値 -0.057367</text>
<text x="535.0" y="799.0" text-anchor="middle" class="node-text">件数 20</text>
<rect x="645.0" y="741.0" width="190" height="88" rx="10" fill="#fee2e2" stroke="#64748b"/>
<text x="740.0" y="761.0" text-anchor="middle" class="node-title">Leaf 11</text>
<text x="740.0" y="780.0" text-anchor="middle" class="node-text">値 -0.056794</text>
<text x="740.0" y="799.0" text-anchor="middle" class="node-text">件数 201</text>
<rect x="1567.5" y="231.0" width="190" height="88" rx="10" fill="#dbeafe" stroke="#2563eb"/>
<text x="1662.5" y="251.0" text-anchor="middle" class="node-title">corr_sp_rate</text>
<text x="1662.5" y="270.0" text-anchor="middle" class="node-text">標準化後 ≤ -0.51025</text>
<text x="1662.5" y="289.0" text-anchor="middle" class="node-text">元尺度 ≤ -0.17204</text>
<text x="1662.5" y="308.0" text-anchor="middle" class="node-text">gain 131.31 / 件数 632</text>
<rect x="1157.5" y="401.0" width="190" height="88" rx="10" fill="#dbeafe" stroke="#2563eb"/>
<text x="1252.5" y="421.0" text-anchor="middle" class="node-title">sp_q90_abs</text>
<text x="1252.5" y="440.0" text-anchor="middle" class="node-text">標準化後 ≤ -0.25067</text>
<text x="1252.5" y="459.0" text-anchor="middle" class="node-text">元尺度 ≤ 0.015864</text>
<text x="1252.5" y="478.0" text-anchor="middle" class="node-text">gain 138.46 / 件数 248</text>
<rect x="952.5" y="571.0" width="190" height="88" rx="10" fill="#dbeafe" stroke="#2563eb"/>
<text x="1047.5" y="591.0" text-anchor="middle" class="node-title">sp_acf1</text>
<text x="1047.5" y="610.0" text-anchor="middle" class="node-text">標準化後 ≤ -0.016686</text>
<text x="1047.5" y="629.0" text-anchor="middle" class="node-text">元尺度 ≤ 0.029215</text>
<text x="1047.5" y="648.0" text-anchor="middle" class="node-text">gain 0.635 / 件数 182</text>
<rect x="850.0" y="741.0" width="190" height="88" rx="10" fill="#dcfce7" stroke="#64748b"/>
<text x="945.0" y="761.0" text-anchor="middle" class="node-title">Leaf 1</text>
<text x="945.0" y="780.0" text-anchor="middle" class="node-text">値 0.049973</text>
<text x="945.0" y="799.0" text-anchor="middle" class="node-text">件数 36</text>
<rect x="1055.0" y="741.0" width="190" height="88" rx="10" fill="#dcfce7" stroke="#64748b"/>
<text x="1150.0" y="761.0" text-anchor="middle" class="node-title">Leaf 7</text>
<text x="1150.0" y="780.0" text-anchor="middle" class="node-text">値 0.057088</text>
<text x="1150.0" y="799.0" text-anchor="middle" class="node-text">件数 146</text>
<rect x="1362.5" y="571.0" width="190" height="88" rx="10" fill="#dbeafe" stroke="#2563eb"/>
<text x="1457.5" y="591.0" text-anchor="middle" class="node-title">rate_skew</text>
<text x="1457.5" y="610.0" text-anchor="middle" class="node-text">標準化後 ≤ 0.33728</text>
<text x="1457.5" y="629.0" text-anchor="middle" class="node-text">元尺度 ≤ 0.14447</text>
<text x="1457.5" y="648.0" text-anchor="middle" class="node-text">gain 0.56046 / 件数 66</text>
<rect x="1260.0" y="741.0" width="190" height="88" rx="10" fill="#fee2e2" stroke="#64748b"/>
<text x="1355.0" y="761.0" text-anchor="middle" class="node-title">Leaf 4</text>
<text x="1355.0" y="780.0" text-anchor="middle" class="node-text">値 -0.058399</text>
<text x="1355.0" y="799.0" text-anchor="middle" class="node-text">件数 47</text>
<rect x="1465.0" y="741.0" width="190" height="88" rx="10" fill="#fee2e2" stroke="#64748b"/>
<text x="1560.0" y="761.0" text-anchor="middle" class="node-title">Leaf 8</text>
<text x="1560.0" y="780.0" text-anchor="middle" class="node-text">値 -0.044261</text>
<text x="1560.0" y="799.0" text-anchor="middle" class="node-text">件数 19</text>
<rect x="1977.5" y="401.0" width="190" height="88" rx="10" fill="#dbeafe" stroke="#2563eb"/>
<text x="2072.5" y="421.0" text-anchor="middle" class="node-title">sp_acf1</text>
<text x="2072.5" y="440.0" text-anchor="middle" class="node-text">標準化後 ≤ -1.0421</text>
<text x="2072.5" y="459.0" text-anchor="middle" class="node-text">元尺度 ≤ -0.07998</text>
<text x="2072.5" y="478.0" text-anchor="middle" class="node-text">gain 152.35 / 件数 384</text>
<rect x="1772.5" y="571.0" width="190" height="88" rx="10" fill="#dbeafe" stroke="#2563eb"/>
<text x="1867.5" y="591.0" text-anchor="middle" class="node-title">sp_q95_abs</text>
<text x="1867.5" y="610.0" text-anchor="middle" class="node-text">標準化後 ≤ 1.6613</text>
<text x="1867.5" y="629.0" text-anchor="middle" class="node-text">元尺度 ≤ 0.029117</text>
<text x="1867.5" y="648.0" text-anchor="middle" class="node-text">gain 2.1772 / 件数 67</text>
<rect x="1670.0" y="741.0" width="190" height="88" rx="10" fill="#dcfce7" stroke="#64748b"/>
<text x="1765.0" y="761.0" text-anchor="middle" class="node-title">Leaf 2</text>
<text x="1765.0" y="780.0" text-anchor="middle" class="node-text">値 0.037158</text>
<text x="1765.0" y="799.0" text-anchor="middle" class="node-text">件数 24</text>
<rect x="1875.0" y="741.0" width="190" height="88" rx="10" fill="#dcfce7" stroke="#64748b"/>
<text x="1970.0" y="761.0" text-anchor="middle" class="node-title">Leaf 6</text>
<text x="1970.0" y="780.0" text-anchor="middle" class="node-text">値 0.055924</text>
<text x="1970.0" y="799.0" text-anchor="middle" class="node-text">件数 43</text>
<rect x="2182.5" y="571.0" width="190" height="88" rx="10" fill="#dbeafe" stroke="#2563eb"/>
<text x="2277.5" y="591.0" text-anchor="middle" class="node-title">rate_abs_acf1</text>
<text x="2277.5" y="610.0" text-anchor="middle" class="node-text">標準化後 ≤ -0.72834</text>
<text x="2277.5" y="629.0" text-anchor="middle" class="node-text">元尺度 ≤ 0.092234</text>
<text x="2277.5" y="648.0" text-anchor="middle" class="node-text">gain 67.9 / 件数 317</text>
<rect x="2080.0" y="741.0" width="190" height="88" rx="10" fill="#dcfce7" stroke="#64748b"/>
<text x="2175.0" y="761.0" text-anchor="middle" class="node-title">Leaf 3</text>
<text x="2175.0" y="780.0" text-anchor="middle" class="node-text">値 0.019157</text>
<text x="2175.0" y="799.0" text-anchor="middle" class="node-text">件数 52</text>
<rect x="2285.0" y="741.0" width="190" height="88" rx="10" fill="#fee2e2" stroke="#64748b"/>
<text x="2380.0" y="761.0" text-anchor="middle" class="node-title">Leaf 5</text>
<text x="2380.0" y="780.0" text-anchor="middle" class="node-text">値 -0.054001</text>
<text x="2380.0" y="799.0" text-anchor="middle" class="node-text">件数 265</text>
</svg>