<svg xmlns="http://www.w3.org/2000/svg" width="1040" height="700">
<rect width="100%" height="100%" fill="white"/>
<text x="520" y="35" text-anchor="middle" font-family="Arial" font-size="24">LightGBM probability of real data</text>
<line x1="90" y1="570" x2="990" y2="570" stroke="#333"/>
<line x1="90" y1="70" x2="90" y2="570" stroke="#333"/>
<line x1="90" y1="570.0" x2="990" y2="570.0" stroke="#ddd"/>
<text x="80" y="575.0" text-anchor="end" font-family="Arial" font-size="13">0.0</text>
<line x1="90" y1="470.0" x2="990" y2="470.0" stroke="#ddd"/>
<text x="80" y="475.0" text-anchor="end" font-family="Arial" font-size="13">0.2</text>
<line x1="90" y1="370.0" x2="990" y2="370.0" stroke="#ddd"/>
<text x="80" y="375.0" text-anchor="end" font-family="Arial" font-size="13">0.4</text>
<line x1="90" y1="270.0" x2="990" y2="270.0" stroke="#ddd"/>
<text x="80" y="275.0" text-anchor="end" font-family="Arial" font-size="13">0.6</text>
<line x1="90" y1="170.0" x2="990" y2="170.0" stroke="#ddd"/>
<text x="80" y="175.0" text-anchor="end" font-family="Arial" font-size="13">0.8</text>
<line x1="90" y1="70.0" x2="990" y2="70.0" stroke="#ddd"/>
<text x="80" y="75.0" text-anchor="end" font-family="Arial" font-size="13">1.0</text>
<line x1="90" y1="320.0" x2="990" y2="320.0" stroke="#b91c1c" stroke-dasharray="6,5"/>
<rect x="95.0" y="260.0" width="54.3" height="310.0" fill="#2563eb"/>
<text x="122.1" y="253.0" text-anchor="middle" font-family="Arial" font-size="12">0.620</text>
<text x="122.1" y="595" text-anchor="middle" font-family="Arial" font-size="13">mask9</text>
<rect x="159.3" y="331.5" width="54.3" height="238.5" fill="#f59e0b"/>
<text x="186.4" y="324.5" text-anchor="middle" font-family="Arial" font-size="12">0.477</text>
<text x="186.4" y="595" text-anchor="middle" font-family="Arial" font-size="13">mask13</text>
<rect x="223.6" y="392.2" width="54.3" height="177.8" fill="#f59e0b"/>
<text x="250.7" y="385.2" text-anchor="middle" font-family="Arial" font-size="12">0.356</text>
<text x="250.7" y="595" text-anchor="middle" font-family="Arial" font-size="13">mask4</text>
<rect x="287.9" y="411.5" width="54.3" height="158.5" fill="#f59e0b"/>
<text x="315.0" y="404.5" text-anchor="middle" font-family="Arial" font-size="12">0.317</text>
<text x="315.0" y="595" text-anchor="middle" font-family="Arial" font-size="13">mask5</text>
<rect x="352.1" y="415.2" width="54.3" height="154.8" fill="#f59e0b"/>
<text x="379.3" y="408.2" text-anchor="middle" font-family="Arial" font-size="12">0.310</text>
<text x="379.3" y="595" text-anchor="middle" font-family="Arial" font-size="13">mask11</text>
<rect x="416.4" y="416.8" width="54.3" height="153.2" fill="#f59e0b"/>
<text x="443.6" y="409.8" text-anchor="middle" font-family="Arial" font-size="12">0.306</text>
<text x="443.6" y="595" text-anchor="middle" font-family="Arial" font-size="13">mask14</text>
<rect x="480.7" y="447.6" width="54.3" height="122.4" fill="#f59e0b"/>
<text x="507.9" y="440.6" text-anchor="middle" font-family="Arial" font-size="12">0.245</text>
<text x="507.9" y="595" text-anchor="middle" font-family="Arial" font-size="13">mask3</text>
<rect x="545.0" y="452.3" width="54.3" height="117.7" fill="#f59e0b"/>
<text x="572.1" y="445.3" text-anchor="middle" font-family="Arial" font-size="12">0.235</text>
<text x="572.1" y="595" text-anchor="middle" font-family="Arial" font-size="13">mask6</text>
<rect x="609.3" y="460.6" width="54.3" height="109.4" fill="#f59e0b"/>
<text x="636.4" y="453.6" text-anchor="middle" font-family="Arial" font-size="12">0.219</text>
<text x="636.4" y="595" text-anchor="middle" font-family="Arial" font-size="13">mask12</text>
<rect x="673.6" y="461.0" width="54.3" height="109.0" fill="#f59e0b"/>
<text x="700.7" y="454.0" text-anchor="middle" font-family="Arial" font-size="12">0.218</text>
<text x="700.7" y="595" text-anchor="middle" font-family="Arial" font-size="13">mask8</text>
<rect x="737.9" y="461.6" width="54.3" height="108.4" fill="#f59e0b"/>
<text x="765.0" y="454.6" text-anchor="middle" font-family="Arial" font-size="12">0.217</text>
<text x="765.0" y="595" text-anchor="middle" font-family="Arial" font-size="13">mask2</text>
<rect x="802.1" y="464.2" width="54.3" height="105.8" fill="#f59e0b"/>
<text x="829.3" y="457.2" text-anchor="middle" font-family="Arial" font-size="12">0.212</text>
<text x="829.3" y="595" text-anchor="middle" font-family="Arial" font-size="13">mask7</text>
<rect x="866.4" y="464.7" width="54.3" height="105.3" fill="#f59e0b"/>
<text x="893.6" y="457.7" text-anchor="middle" font-family="Arial" font-size="12">0.211</text>
<text x="893.6" y="595" text-anchor="middle" font-family="Arial" font-size="13">mask1</text>
<rect x="930.7" y="464.7" width="54.3" height="105.3" fill="#f59e0b"/>
<text x="957.9" y="457.7" text-anchor="middle" font-family="Arial" font-size="12">0.211</text>
<text x="957.9" y="595" text-anchor="middle" font-family="Arial" font-size="13">mask10</text>
</svg>