<svg xmlns="http://www.w3.org/2000/svg" width="1040" height="700">
<rect width="100%" height="100%" fill="white"/>
<text x="520" y="35" text-anchor="middle" font-family="Arial" font-size="24">LightGBM probability of real data</text>
<line x1="90" y1="570" x2="990" y2="570" stroke="#333"/>
<line x1="90" y1="70" x2="90" y2="570" stroke="#333"/>
<line x1="90" y1="570.0" x2="990" y2="570.0" stroke="#ddd"/>
<text x="80" y="575.0" text-anchor="end" font-family="Arial" font-size="13">0.0</text>
<line x1="90" y1="470.0" x2="990" y2="470.0" stroke="#ddd"/>
<text x="80" y="475.0" text-anchor="end" font-family="Arial" font-size="13">0.2</text>
<line x1="90" y1="370.0" x2="990" y2="370.0" stroke="#ddd"/>
<text x="80" y="375.0" text-anchor="end" font-family="Arial" font-size="13">0.4</text>
<line x1="90" y1="270.0" x2="990" y2="270.0" stroke="#ddd"/>
<text x="80" y="275.0" text-anchor="end" font-family="Arial" font-size="13">0.6</text>
<line x1="90" y1="170.0" x2="990" y2="170.0" stroke="#ddd"/>
<text x="80" y="175.0" text-anchor="end" font-family="Arial" font-size="13">0.8</text>
<line x1="90" y1="70.0" x2="990" y2="70.0" stroke="#ddd"/>
<text x="80" y="75.0" text-anchor="end" font-family="Arial" font-size="13">1.0</text>
<line x1="90" y1="320.0" x2="990" y2="320.0" stroke="#b91c1c" stroke-dasharray="6,5"/>
<rect x="95.0" y="203.0" width="54.3" height="367.0" fill="#2563eb"/>
<text x="122.1" y="196.0" text-anchor="middle" font-family="Arial" font-size="12">0.734</text>
<text x="122.1" y="595" text-anchor="middle" font-family="Arial" font-size="13">mask9</text>
<rect x="159.3" y="286.4" width="54.3" height="283.6" fill="#2563eb"/>
<text x="186.4" y="279.4" text-anchor="middle" font-family="Arial" font-size="12">0.567</text>
<text x="186.4" y="595" text-anchor="middle" font-family="Arial" font-size="13">mask4</text>
<rect x="223.6" y="332.6" width="54.3" height="237.4" fill="#f59e0b"/>
<text x="250.7" y="325.6" text-anchor="middle" font-family="Arial" font-size="12">0.475</text>
<text x="250.7" y="595" text-anchor="middle" font-family="Arial" font-size="13">mask8</text>
<rect x="287.9" y="375.2" width="54.3" height="194.8" fill="#f59e0b"/>
<text x="315.0" y="368.2" text-anchor="middle" font-family="Arial" font-size="12">0.390</text>
<text x="315.0" y="595" text-anchor="middle" font-family="Arial" font-size="13">mask1</text>
<rect x="352.1" y="425.3" width="54.3" height="144.7" fill="#f59e0b"/>
<text x="379.3" y="418.3" text-anchor="middle" font-family="Arial" font-size="12">0.289</text>
<text x="379.3" y="595" text-anchor="middle" font-family="Arial" font-size="13">mask12</text>
<rect x="416.4" y="432.7" width="54.3" height="137.3" fill="#f59e0b"/>
<text x="443.6" y="425.7" text-anchor="middle" font-family="Arial" font-size="12">0.275</text>
<text x="443.6" y="595" text-anchor="middle" font-family="Arial" font-size="13">mask10</text>
<rect x="480.7" y="455.4" width="54.3" height="114.6" fill="#f59e0b"/>
<text x="507.9" y="448.4" text-anchor="middle" font-family="Arial" font-size="12">0.229</text>
<text x="507.9" y="595" text-anchor="middle" font-family="Arial" font-size="13">mask3</text>
<rect x="545.0" y="464.8" width="54.3" height="105.2" fill="#f59e0b"/>
<text x="572.1" y="457.8" text-anchor="middle" font-family="Arial" font-size="12">0.210</text>
<text x="572.1" y="595" text-anchor="middle" font-family="Arial" font-size="13">mask14</text>
<rect x="609.3" y="474.6" width="54.3" height="95.4" fill="#f59e0b"/>
<text x="636.4" y="467.6" text-anchor="middle" font-family="Arial" font-size="12">0.191</text>
<text x="636.4" y="595" text-anchor="middle" font-family="Arial" font-size="13">mask5</text>
<rect x="673.6" y="481.5" width="54.3" height="88.5" fill="#f59e0b"/>
<text x="700.7" y="474.5" text-anchor="middle" font-family="Arial" font-size="12">0.177</text>
<text x="700.7" y="595" text-anchor="middle" font-family="Arial" font-size="13">mask13</text>
<rect x="737.9" y="483.7" width="54.3" height="86.3" fill="#f59e0b"/>
<text x="765.0" y="476.7" text-anchor="middle" font-family="Arial" font-size="12">0.173</text>
<text x="765.0" y="595" text-anchor="middle" font-family="Arial" font-size="13">mask2</text>
<rect x="802.1" y="487.4" width="54.3" height="82.6" fill="#f59e0b"/>
<text x="829.3" y="480.4" text-anchor="middle" font-family="Arial" font-size="12">0.165</text>
<text x="829.3" y="595" text-anchor="middle" font-family="Arial" font-size="13">mask6</text>
<rect x="866.4" y="487.5" width="54.3" height="82.5" fill="#f59e0b"/>
<text x="893.6" y="480.5" text-anchor="middle" font-family="Arial" font-size="12">0.165</text>
<text x="893.6" y="595" text-anchor="middle" font-family="Arial" font-size="13">mask11</text>
<rect x="930.7" y="488.1" width="54.3" height="81.9" fill="#f59e0b"/>
<text x="957.9" y="481.1" text-anchor="middle" font-family="Arial" font-size="12">0.164</text>
<text x="957.9" y="595" text-anchor="middle" font-family="Arial" font-size="13">mask7</text>
</svg>