<svg xmlns="http://www.w3.org/2000/svg" width="1000" height="620" viewBox="0 0 1000 620">
  <rect width="1000" height="620" fill="white"/>
  <text x="500" y="38" text-anchor="middle" font-family="Arial" font-size="24">LightGBM stride test comparison</text>
  <text x="500" y="66" text-anchor="middle" font-family="Arial" font-size="15">Accuracy is affected by class imbalance; real recall remains zero</text>
  <line x1="100" y1="500" x2="930" y2="500" stroke="#333"/>
  <line x1="100" y1="100" x2="100" y2="500" stroke="#333"/>
  <g font-family="Arial" font-size="13" fill="#333">
    <text x="88" y="505" text-anchor="end">0.0</text>
    <text x="88" y="425" text-anchor="end">0.2</text>
    <text x="88" y="345" text-anchor="end">0.4</text>
    <text x="88" y="265" text-anchor="end">0.6</text>
    <text x="88" y="185" text-anchor="end">0.8</text>
    <text x="88" y="105" text-anchor="end">1.0</text>
  </g>
  <g stroke="#ddd">
    <line x1="100" y1="420" x2="930" y2="420"/>
    <line x1="100" y1="340" x2="930" y2="340"/>
    <line x1="100" y1="260" x2="930" y2="260"/>
    <line x1="100" y1="180" x2="930" y2="180"/>
    <line x1="100" y1="100" x2="930" y2="100"/>
  </g>
  <g font-family="Arial" font-size="13" text-anchor="middle">
    <rect x="160" y="179.2" width="55" height="320.8" fill="#6b7280"/><text x="187" y="171">0.802</text>
    <rect x="220" y="199.4" width="55" height="300.6" fill="#2563eb"/><text x="247" y="191">0.752</text>
    <text x="217" y="530">AUC</text>
    <rect x="350" y="263.6" width="55" height="236.4" fill="#6b7280"/><text x="377" y="255">0.591</text>
    <rect x="410" y="145.0" width="55" height="355.0" fill="#2563eb"/><text x="437" y="137">0.887</text>
    <text x="407" y="530">Accuracy</text>
    <rect x="540" y="302.0" width="55" height="198.0" fill="#6b7280"/><text x="567" y="294">0.495</text>
    <rect x="600" y="303.0" width="55" height="197.0" fill="#2563eb"/><text x="627" y="295">0.493</text>
    <text x="597" y="530">Balanced accuracy</text>
    <rect x="730" y="500" width="55" height="0" fill="#6b7280"/><text x="757" y="487">0.000</text>
    <rect x="790" y="500" width="55" height="0" fill="#2563eb"/><text x="817" y="487">0.000</text>
    <text x="787" y="530">Real recall</text>
  </g>
  <rect x="350" y="570" width="18" height="14" fill="#6b7280"/><text x="376" y="582" font-family="Arial" font-size="14">stride 20</text>
  <rect x="510" y="570" width="18" height="14" fill="#2563eb"/><text x="536" y="582" font-family="Arial" font-size="14">stride 126</text>
</svg>
